<?xml version="1.0" encoding="UTF-8"?>
<!DOCTYPE svg PUBLIC "-//W3C//DTD SVG 1.1//EN" "http://www.w3.org/Graphics/SVG/1.1/DTD/svg11.dtd">
<svg xmlns="http://www.w3.org/2000/svg" version="1.1" width="308px" height="308px" style="shape-rendering:geometricPrecision; text-rendering:geometricPrecision; image-rendering:optimizeQuality; fill-rule:evenodd; clip-rule:evenodd" xmlns:xlink="http://www.w3.org/1999/xlink">
<g><path style="opacity:1" fill="#997e4f" d="M 130.5,19.5 C 133.167,19.5 135.833,19.5 138.5,19.5C 149.505,19.3335 160.505,19.5002 171.5,20C 184.712,22.5312 197.712,25.6979 210.5,29.5C 212.216,29.6287 213.883,29.962 215.5,30.5C 218.972,32.7381 222.638,34.7381 226.5,36.5C 226.5,37.5 226.5,38.5 226.5,39.5C 232.03,42.1237 237.363,45.1237 242.5,48.5C 247.248,50.8824 251.248,54.2157 254.5,58.5C 254.351,59.552 254.517,60.552 255,61.5C 257.292,62.7899 259.292,64.4565 261,66.5C 264.693,72.5028 268.693,78.1694 273,83.5C 276.082,89.6056 279.248,95.6056 282.5,101.5C 280.466,100.452 279.133,98.7855 278.5,96.5C 277.675,95.6143 276.675,95.281 275.5,95.5C 275.649,94.448 275.483,93.448 275,92.5C 272.667,91.5871 270.834,90.0871 269.5,88C 268.365,87.2506 267.365,87.4173 266.5,88.5C 269.838,93.6615 273.338,98.6615 277,103.5C 278.33,109.818 279.497,116.151 280.5,122.5C 278.975,119.921 277.641,117.254 276.5,114.5C 268.836,91.6669 255.503,72.8335 236.5,58C 216.856,43.0063 194.856,33.8396 170.5,30.5C 169.737,29.7321 168.737,29.2321 167.5,29C 159.655,28.1777 151.989,28.3443 144.5,29.5C 141.311,29.8583 138.311,30.525 135.5,31.5C 115.915,33.7494 97.9147,40.2494 81.5,51C 75.9555,55.3843 70.2889,59.551 64.5,63.5C 64.4842,59.891 65.8175,56.891 68.5,54.5C 72.7885,51.7586 77.4552,49.9253 82.5,49C 85.3486,45.1433 89.0153,42.4766 93.5,41C 92.8438,38.6696 93.8438,37.0029 96.5,36C 95.9221,34.583 94.9221,33.7496 93.5,33.5C 94.0577,32.2101 95.0577,31.3768 96.5,31C 102.839,30.3271 108.172,27.8271 112.5,23.5C 118.252,21.5648 124.252,20.2315 130.5,19.5 Z"/></g>
<g><path style="opacity:0.063" fill="#e5e7e7" d="M 292.5,95.5 C 290.748,92.328 288.748,89.328 286.5,86.5C 277.129,68.1257 264.129,52.7923 247.5,40.5C 220.698,19.841 190.198,9.17431 156,8.5C 117.512,8.72402 83.6789,21.0574 54.5,45.5C 52.5,46.8333 50.8333,48.5 49.5,50.5C 29.4317,68.6362 15.4317,90.6362 7.5,116.5C 11.2178,101.4 17.3844,87.3999 26,74.5C 64.6454,22.1523 116.479,0.318973 181.5,9C 228.374,18.2192 263.874,43.3858 288,84.5C 290.072,87.9712 291.572,91.6379 292.5,95.5 Z"/></g>
<g><path style="opacity:1" fill="#192c34" d="M 247.5,40.5 C 245.631,42.889 243.797,42.889 242,40.5C 241.667,40.8333 241.333,41.1667 241,41.5C 239.231,39.6843 238.064,38.0177 237.5,36.5C 236.914,36.7093 236.414,37.0426 236,37.5C 233.263,36.4396 230.43,35.6063 227.5,35C 224.344,31.3732 220.344,29.8732 215.5,30.5C 214.594,29.0351 213.261,28.0351 211.5,27.5C 210.614,26.675 210.281,25.675 210.5,24.5C 202.544,22.9878 194.544,21.6545 186.5,20.5C 184.901,20.7678 183.568,20.4345 182.5,19.5C 179.423,18.144 176.09,17.3106 172.5,17C 159.993,16.1735 147.66,16.3401 135.5,17.5C 134.081,18.4511 132.415,18.7845 130.5,18.5C 127.482,18.3354 124.482,18.502 121.5,19C 113.769,20.8963 106.103,22.8963 98.5,25C 93.109,28.6022 87.7757,32.1022 82.5,35.5C 80.1432,35.3367 77.8098,35.5034 75.5,36C 72.8041,38.1723 69.8041,39.6723 66.5,40.5C 66.5,42.1667 66.5,43.8333 66.5,45.5C 65.5,45.5 64.5,45.5 63.5,45.5C 63.5,46.5 63.5,47.5 63.5,48.5C 59.9979,48.6663 56.9979,47.6663 54.5,45.5C 83.6789,21.0574 117.512,8.72402 156,8.5C 190.198,9.17431 220.698,19.841 247.5,40.5 Z"/></g>
<g><path style="opacity:1" fill="#1f2822" d="M 130.5,18.5 C 130.5,18.8333 130.5,19.1667 130.5,19.5C 124.252,20.2315 118.252,21.5648 112.5,23.5C 102.102,26.5213 92.1016,30.5213 82.5,35.5C 87.7757,32.1022 93.109,28.6022 98.5,25C 106.103,22.8963 113.769,20.8963 121.5,19C 124.482,18.502 127.482,18.3354 130.5,18.5 Z"/></g>
<g><path style="opacity:1" fill="#2e342d" d="M 186.5,20.5 C 194.544,21.6545 202.544,22.9878 210.5,24.5C 210.281,25.675 210.614,26.675 211.5,27.5C 213.261,28.0351 214.594,29.0351 215.5,30.5C 213.883,29.962 212.216,29.6287 210.5,29.5C 202.783,25.706 194.783,22.706 186.5,20.5 Z"/></g>
<g><path style="opacity:1" fill="#8a7a5a" d="M 138.5,19.5 C 146.316,18.5076 154.316,18.1743 162.5,18.5C 169.191,18.4542 175.857,18.7875 182.5,19.5C 183.568,20.4345 184.901,20.7678 186.5,20.5C 194.783,22.706 202.783,25.706 210.5,29.5C 197.712,25.6979 184.712,22.5312 171.5,20C 160.505,19.5002 149.505,19.3335 138.5,19.5 Z"/></g>
<g><path style="opacity:1" fill="#665f4c" d="M 135.5,17.5 C 144.682,17.1734 153.682,17.5067 162.5,18.5C 154.316,18.1743 146.316,18.5076 138.5,19.5C 135.833,19.5 133.167,19.5 130.5,19.5C 130.5,19.1667 130.5,18.8333 130.5,18.5C 132.415,18.7845 134.081,18.4511 135.5,17.5 Z"/></g>
<g><path style="opacity:1" fill="#2b2d26" d="M 135.5,17.5 C 147.66,16.3401 159.993,16.1735 172.5,17C 176.09,17.3106 179.423,18.144 182.5,19.5C 175.857,18.7875 169.191,18.4542 162.5,18.5C 153.682,17.5067 144.682,17.1734 135.5,17.5 Z"/></g>
<g><path style="opacity:1" fill="#a09271" d="M 144.5,29.5 C 151.989,28.3443 159.655,28.1777 167.5,29C 168.737,29.2321 169.737,29.7321 170.5,30.5C 167.5,30.5 164.5,30.5 161.5,30.5C 156.025,29.5111 150.358,29.1778 144.5,29.5 Z"/></g>
<g><path style="opacity:1" fill="#ded7c1" d="M 144.5,29.5 C 150.358,29.1778 156.025,29.5111 161.5,30.5C 152.815,30.464 144.149,30.7974 135.5,31.5C 138.311,30.525 141.311,29.8583 144.5,29.5 Z"/></g>
<g><path style="opacity:1" fill="#887c59" d="M 112.5,23.5 C 108.172,27.8271 102.839,30.3271 96.5,31C 95.0577,31.3768 94.0577,32.2101 93.5,33.5C 84.4521,37.2446 75.7854,41.578 67.5,46.5C 72.3224,42.589 77.3224,38.9224 82.5,35.5C 92.1016,30.5213 102.102,26.5213 112.5,23.5 Z"/></g>
<g><path style="opacity:1" fill="#1e2825" d="M 82.5,35.5 C 77.3224,38.9224 72.3224,42.589 67.5,46.5C 65.9382,46.7329 64.6049,47.3995 63.5,48.5C 63.5,47.5 63.5,46.5 63.5,45.5C 64.5,45.5 65.5,45.5 66.5,45.5C 66.5,43.8333 66.5,42.1667 66.5,40.5C 69.8041,39.6723 72.8041,38.1723 75.5,36C 77.8098,35.5034 80.1432,35.3367 82.5,35.5 Z"/></g>
<g><path style="opacity:1" fill="#867b5b" d="M 226.5,36.5 C 232.587,39.5385 237.921,43.5385 242.5,48.5C 237.363,45.1237 232.03,42.1237 226.5,39.5C 226.5,38.5 226.5,37.5 226.5,36.5 Z"/></g>
<g><path style="opacity:1" fill="#faf8ec" d="M 161.5,30.5 C 164.5,30.5 167.5,30.5 170.5,30.5C 194.856,33.8396 216.856,43.0063 236.5,58C 255.503,72.8335 268.836,91.6669 276.5,114.5C 274.061,112.515 272.561,109.848 272,106.5C 270.829,104.384 269.329,103.718 267.5,104.5C 271.849,111.537 274.183,119.204 274.5,127.5C 272.935,125.491 271.935,123.157 271.5,120.5C 270.935,118.048 270.268,115.715 269.5,113.5C 269.5,112.833 269.167,112.5 268.5,112.5C 268.104,109.279 266.771,106.612 264.5,104.5C 264.539,101.911 263.539,99.911 261.5,98.5C 261.5,97.8333 261.167,97.5 260.5,97.5C 258.993,93.1554 256.827,89.1554 254,85.5C 252.961,84.2899 251.794,83.2899 250.5,82.5C 249.181,80.2195 247.515,78.2195 245.5,76.5C 241.461,71.46 236.794,67.1266 231.5,63.5C 229.54,61.8437 227.54,60.177 225.5,58.5C 220.659,55.5788 215.659,52.9121 210.5,50.5C 210.167,50.5 209.833,50.5 209.5,50.5C 199.807,44.934 189.473,40.934 178.5,38.5C 156.967,33.9577 135.633,34.9577 114.5,41.5C 113.66,42.735 112.66,43.735 111.5,44.5C 110.391,44.5569 109.391,44.8902 108.5,45.5C 105.017,44.9159 102.017,45.7492 99.5,48C 97.2115,48.8221 94.8782,49.4888 92.5,50C 89.7063,51.5355 87.7063,53.7022 86.5,56.5C 85.5,56.8333 84.8333,57.5 84.5,58.5C 81.1092,59.5293 78.4426,61.5293 76.5,64.5C 72.183,67.4864 68.183,70.8197 64.5,74.5C 64.1667,74.5 63.8333,74.5 63.5,74.5C 61.9102,74.6282 60.5769,75.2949 59.5,76.5C 57.0648,79.9061 54.7315,83.2395 52.5,86.5C 51.5,86.5 50.5,86.5 49.5,86.5C 49.9783,89.2776 48.9783,91.2776 46.5,92.5C 45.6279,94.4496 44.9612,96.4496 44.5,98.5C 44.5,98.8333 44.5,99.1667 44.5,99.5C 42.5372,100.96 40.7038,102.627 39,104.5C 38.8333,103.667 38.6667,102.833 38.5,102C 40.5583,99.2357 41.725,96.0691 42,92.5C 44.9101,91.5497 46.0768,89.5497 45.5,86.5C 47.7485,82.2458 50.4152,78.2458 53.5,74.5C 57.5,71.1667 61.1667,67.5 64.5,63.5C 70.2889,59.551 75.9555,55.3843 81.5,51C 97.9147,40.2494 115.915,33.7494 135.5,31.5C 144.149,30.7974 152.815,30.464 161.5,30.5 Z"/></g>
<g><path style="opacity:1" fill="#b6974a" d="M 178.5,38.5 C 189.473,40.934 199.807,44.934 209.5,50.5C 207.801,50.6602 206.134,50.4935 204.5,50C 192.736,43.4648 180.069,39.7981 166.5,39C 152.215,37.5848 138.215,38.7515 124.5,42.5C 123.5,42.5 122.5,42.5 121.5,42.5C 121.611,41.8826 121.944,41.3826 122.5,41C 141.019,37.3377 159.686,36.5043 178.5,38.5 Z"/></g>
<g><path style="opacity:1" fill="#f3eac5" d="M 178.5,38.5 C 159.686,36.5043 141.019,37.3377 122.5,41C 121.944,41.3826 121.611,41.8826 121.5,42.5C 118.123,42.9595 114.789,43.6261 111.5,44.5C 112.66,43.735 113.66,42.735 114.5,41.5C 135.633,34.9577 156.967,33.9577 178.5,38.5 Z"/></g>
<g><path style="opacity:1" fill="#f7efcc" d="M 108.5,45.5 C 100.964,48.6015 93.6302,52.2682 86.5,56.5C 87.7063,53.7022 89.7063,51.5355 92.5,50C 94.8782,49.4888 97.2115,48.8221 99.5,48C 102.017,45.7492 105.017,44.9159 108.5,45.5 Z"/></g>
<g><path style="opacity:1" fill="#bc8d1f" d="M 209.5,50.5 C 209.833,50.5 210.167,50.5 210.5,50.5C 210.414,51.4959 210.748,52.3292 211.5,53C 215.931,54.5358 219.597,57.0358 222.5,60.5C 221.833,60.5 221.167,60.5 220.5,60.5C 202.326,60.1699 184.326,60.5032 166.5,61.5C 164.251,60.9202 162.585,59.5869 161.5,57.5C 161.084,55.2475 159.751,53.7475 157.5,53C 154.132,52.4572 150.799,52.6239 147.5,53.5C 147.5,54.8333 147.5,56.1667 147.5,57.5C 146.167,58.5 144.833,59.5 143.5,60.5C 142.5,60.5 141.5,60.5 140.5,60.5C 122.167,60.5 103.833,60.5 85.5,60.5C 91.3223,57.0878 97.3223,53.9211 103.5,51C 106.352,50.0638 108.685,50.7305 110.5,53C 113.167,53.6667 115.833,53.6667 118.5,53C 115.629,51.0655 112.629,49.3988 109.5,48C 112.638,46.7556 115.972,46.089 119.5,46C 121.584,45.3028 123.251,44.1361 124.5,42.5C 138.215,38.7515 152.215,37.5848 166.5,39C 180.069,39.7981 192.736,43.4648 204.5,50C 206.134,50.4935 207.801,50.6602 209.5,50.5 Z"/></g>
<g><path style="opacity:1" fill="#af8a2a" d="M 121.5,42.5 C 122.5,42.5 123.5,42.5 124.5,42.5C 123.251,44.1361 121.584,45.3028 119.5,46C 115.972,46.089 112.638,46.7556 109.5,48C 112.629,49.3988 115.629,51.0655 118.5,53C 115.833,53.6667 113.167,53.6667 110.5,53C 108.685,50.7305 106.352,50.0638 103.5,51C 97.3223,53.9211 91.3223,57.0878 85.5,60.5C 84.8333,60.5 84.1667,60.5 83.5,60.5C 83.8333,59.8333 84.1667,59.1667 84.5,58.5C 84.8333,57.5 85.5,56.8333 86.5,56.5C 93.6302,52.2682 100.964,48.6015 108.5,45.5C 109.391,44.8902 110.391,44.5569 111.5,44.5C 114.789,43.6261 118.123,42.9595 121.5,42.5 Z"/></g>
<g><path style="opacity:1" fill="#bd9e4d" d="M 161.5,57.5 C 158.647,56.8108 156.147,55.4775 154,53.5C 151.429,54.25 149.262,55.5833 147.5,57.5C 147.5,56.1667 147.5,54.8333 147.5,53.5C 150.799,52.6239 154.132,52.4572 157.5,53C 159.751,53.7475 161.084,55.2475 161.5,57.5 Z"/></g>
<g><path style="opacity:1" fill="#ae8a3c" d="M 210.5,50.5 C 215.659,52.9121 220.659,55.5788 225.5,58.5C 225.179,60.0481 224.179,60.7148 222.5,60.5C 219.597,57.0358 215.931,54.5358 211.5,53C 210.748,52.3292 210.414,51.4959 210.5,50.5 Z"/></g>
<g><path style="opacity:1" fill="#f9f4d5" d="M 161.5,57.5 C 162.585,59.5869 164.251,60.9202 166.5,61.5C 167.167,62.5 167.833,63.5 168.5,64.5C 165.598,63.4222 162.598,62.7556 159.5,62.5C 157.672,56.247 154.339,55.247 149.5,59.5C 148.448,59.3505 147.448,59.5172 146.5,60C 143.794,62.6756 140.794,64.8423 137.5,66.5C 139.194,64.1394 141.194,62.1394 143.5,60.5C 144.833,59.5 146.167,58.5 147.5,57.5C 149.262,55.5833 151.429,54.25 154,53.5C 156.147,55.4775 158.647,56.8108 161.5,57.5 Z"/></g>
<g><path style="opacity:1" fill="#e1b95c" d="M 140.5,60.5 C 141.5,60.5 142.5,60.5 143.5,60.5C 141.194,62.1394 139.194,64.1394 137.5,66.5C 135.938,66.7329 134.605,67.3995 133.5,68.5C 133.5,67.5 133.5,66.5 133.5,65.5C 130.553,65.0583 127.887,63.8916 125.5,62C 130.684,61.8261 135.684,61.3261 140.5,60.5 Z"/></g>
<g><path style="opacity:1" fill="#dda63d" d="M 166.5,61.5 C 184.326,60.5032 202.326,60.1699 220.5,60.5C 222.919,62.8624 225.919,63.8624 229.5,63.5C 229.5,64.5 229.5,65.5 229.5,66.5C 220.5,66.5 211.5,66.5 202.5,66.5C 194.016,65.507 185.349,65.1736 176.5,65.5C 174.801,65.6602 173.134,65.4935 171.5,65C 170.211,63.1978 168.544,62.0312 166.5,61.5 Z"/></g>
<g><path style="opacity:1" fill="#d9ac3f" d="M 83.5,60.5 C 84.1667,60.5 84.8333,60.5 85.5,60.5C 103.833,60.5 122.167,60.5 140.5,60.5C 135.684,61.3261 130.684,61.8261 125.5,62C 127.887,63.8916 130.553,65.0583 133.5,65.5C 114.659,65.8302 95.9925,65.4969 77.5,64.5C 79.678,63.3434 81.678,62.0101 83.5,60.5 Z"/></g>
<g><path style="opacity:1" fill="#e3ba6a" d="M 225.5,58.5 C 227.54,60.177 229.54,61.8437 231.5,63.5C 230.833,63.5 230.167,63.5 229.5,63.5C 225.919,63.8624 222.919,62.8624 220.5,60.5C 221.167,60.5 221.833,60.5 222.5,60.5C 224.179,60.7148 225.179,60.0481 225.5,58.5 Z"/></g>
<g><path style="opacity:1" fill="#1d2926" d="M 54.5,45.5 C 56.9979,47.6663 59.9979,48.6663 63.5,48.5C 53.855,57.1462 44.855,66.4796 36.5,76.5C 37.8582,72.2549 39.6915,68.2549 42,64.5C 43.0113,63.6634 44.1779,63.33 45.5,63.5C 45.5,61.8333 45.5,60.1667 45.5,58.5C 47.1667,58.5 48.8333,58.5 50.5,58.5C 50.7733,56.549 50.1066,55.049 48.5,54C 49.3366,52.9887 49.67,51.8221 49.5,50.5C 50.8333,48.5 52.5,46.8333 54.5,45.5 Z"/></g>
<g><path style="opacity:1" fill="#ceb96b" d="M 84.5,58.5 C 84.1667,59.1667 83.8333,59.8333 83.5,60.5C 81.678,62.0101 79.678,63.3434 77.5,64.5C 77.1667,64.5 76.8333,64.5 76.5,64.5C 78.4426,61.5293 81.1092,59.5293 84.5,58.5 Z"/></g>
<g><path style="opacity:1" fill="#9b7f4a" d="M 93.5,33.5 C 94.9221,33.7496 95.9221,34.583 96.5,36C 93.8438,37.0029 92.8438,38.6696 93.5,41C 89.0153,42.4766 85.3486,45.1433 82.5,49C 77.4552,49.9253 72.7885,51.7586 68.5,54.5C 65.8175,56.891 64.4842,59.891 64.5,63.5C 61.1667,67.5 57.5,71.1667 53.5,74.5C 52.5,74.5 51.5,74.5 50.5,74.5C 50.5,75.5 50.5,76.5 50.5,77.5C 47.6118,77.2196 46.1118,78.5529 46,81.5C 45.1475,83.1247 44.1475,83.4581 43,82.5C 42.0853,83.3279 41.4186,84.3279 41,85.5C 40.5,84.5 40,83.5 39.5,82.5C 40.3742,80.2534 40.7076,77.9201 40.5,75.5C 41.8221,75.67 42.9887,75.3366 44,74.5C 47.8663,70.0023 51.1996,65.0023 54,59.5C 58.8629,55.4962 63.3629,51.1628 67.5,46.5C 75.7854,41.578 84.4521,37.2446 93.5,33.5 Z"/></g>
<g><path style="opacity:1" fill="#bc8921" d="M 176.5,65.5 C 185.349,65.1736 194.016,65.507 202.5,66.5C 197.968,66.1818 193.634,66.5151 189.5,67.5C 187.692,68.9179 187.025,70.9179 187.5,73.5C 184.996,72.3608 182.33,71.6941 179.5,71.5C 177.975,69.7837 176.975,67.7837 176.5,65.5 Z"/></g>
<g><path style="opacity:1" fill="#c6a355" d="M 166.5,61.5 C 168.544,62.0312 170.211,63.1978 171.5,65C 173.134,65.4935 174.801,65.6602 176.5,65.5C 176.975,67.7837 177.975,69.7837 179.5,71.5C 176.851,69.86 174.184,68.1933 171.5,66.5C 170.5,65.8333 169.5,65.1667 168.5,64.5C 167.833,63.5 167.167,62.5 166.5,61.5 Z"/></g>
<g><path style="opacity:1" fill="#b38a31" d="M 229.5,63.5 C 230.167,63.5 230.833,63.5 231.5,63.5C 236.794,67.1266 241.461,71.46 245.5,76.5C 243.052,77.4731 240.385,77.8064 237.5,77.5C 239.364,71.9574 237.364,68.624 231.5,67.5C 230.511,71.1073 230.177,74.774 230.5,78.5C 229.833,78.5 229.167,78.5 228.5,78.5C 228.5,74.8333 228.5,71.1667 228.5,67.5C 215.5,67.5 202.5,67.5 189.5,67.5C 193.634,66.5151 197.968,66.1818 202.5,66.5C 211.5,66.5 220.5,66.5 229.5,66.5C 229.5,65.5 229.5,64.5 229.5,63.5 Z"/></g>
<g><path style="opacity:1" fill="#1f2f35" d="M 49.5,50.5 C 49.67,51.8221 49.3366,52.9887 48.5,54C 50.1066,55.049 50.7733,56.549 50.5,58.5C 48.8333,58.5 47.1667,58.5 45.5,58.5C 45.5,60.1667 45.5,61.8333 45.5,63.5C 44.1779,63.33 43.0113,63.6634 42,64.5C 39.6915,68.2549 37.8582,72.2549 36.5,76.5C 36.5,77.1667 36.1667,77.5 35.5,77.5C 34.5,77.5 33.5,77.5 32.5,77.5C 28.6164,85.9097 24.4497,94.243 20,102.5C 19.51,103.793 19.3433,105.127 19.5,106.5C 17.1948,107.879 15.1948,109.713 13.5,112C 14.0968,113.062 14.4302,114.228 14.5,115.5C 8.02517,137.727 7.02517,160.227 11.5,183C 11.6842,184.376 12.3509,185.209 13.5,185.5C 19.925,210.023 32.2584,231.023 50.5,248.5C 54.2678,252.877 58.6012,256.544 63.5,259.5C 65.3788,262.115 67.7121,264.281 70.5,266C 74.7324,268.275 78.7324,270.775 82.5,273.5C 76.9432,271.388 71.6098,268.722 66.5,265.5C 62.5136,265.924 61.8469,267.424 64.5,270C 64.2716,270.399 63.9382,270.565 63.5,270.5C 62.3951,269.4 61.0618,268.733 59.5,268.5C 58.0892,266.086 56.0892,264.419 53.5,263.5C 50.4372,259.434 46.7706,256.101 42.5,253.5C 42.1667,251.167 40.8333,249.833 38.5,249.5C 37.2427,246.573 35.2427,244.239 32.5,242.5C 32.2624,240.596 31.2624,239.262 29.5,238.5C 29.2624,236.596 28.2624,235.262 26.5,234.5C 23.6641,228.822 20.3308,223.489 16.5,218.5C 12.612,208.825 8.94533,199.158 5.5,189.5C 5.57968,186.219 4.91301,183.219 3.5,180.5C 1.97778,173.061 1.31112,165.394 1.5,157.5C 1.28981,149.932 1.95648,142.599 3.5,135.5C 4.90341,132.091 5.57007,128.425 5.5,124.5C 5.56513,121.572 6.2318,118.905 7.5,116.5C 15.4317,90.6362 29.4317,68.6362 49.5,50.5 Z"/></g>
<g><path style="opacity:1" fill="#1c2c30" d="M 215.5,30.5 C 220.344,29.8732 224.344,31.3732 227.5,35C 230.43,35.6063 233.263,36.4396 236,37.5C 236.414,37.0426 236.914,36.7093 237.5,36.5C 238.064,38.0177 239.231,39.6843 241,41.5C 241.333,41.1667 241.667,40.8333 242,40.5C 243.797,42.889 245.631,42.889 247.5,40.5C 264.129,52.7923 277.129,68.1257 286.5,86.5C 286.297,88.0443 285.63,89.3777 284.5,90.5C 285.262,90.9106 286.262,91.0773 287.5,91C 285.715,92.5929 285.548,94.0929 287,95.5C 287.333,95.1667 287.667,94.8333 288,94.5C 287.694,98.6055 289.194,101.772 292.5,104C 291.707,105.085 291.04,106.252 290.5,107.5C 292.557,108.387 294.057,110.387 295,113.5C 295.667,119.5 296.333,125.5 297,131.5C 298,132.833 299,132.833 300,131.5C 300.326,134.985 299.826,138.318 298.5,141.5C 297.167,138.5 295.833,135.5 294.5,132.5C 292.991,125.465 291.325,118.465 289.5,111.5C 289.66,109.801 289.494,108.134 289,106.5C 285.185,99.8685 282.185,92.8685 280,85.5C 275.2,82.8981 273.367,78.8981 274.5,73.5C 270.948,72.2845 267.615,70.6178 264.5,68.5C 261.5,64.8333 258.167,61.5 254.5,58.5C 251.248,54.2157 247.248,50.8824 242.5,48.5C 237.921,43.5385 232.587,39.5385 226.5,36.5C 222.638,34.7381 218.972,32.7381 215.5,30.5 Z"/></g>
<g><path style="opacity:1" fill="#b68a1b" d="M 76.5,64.5 C 76.8333,64.5 77.1667,64.5 77.5,64.5C 95.9925,65.4969 114.659,65.8302 133.5,65.5C 133.5,66.5 133.5,67.5 133.5,68.5C 132.167,69.1667 131.167,70.1667 130.5,71.5C 128.938,71.7329 127.605,72.3995 126.5,73.5C 122.703,74.3112 119.369,75.9779 116.5,78.5C 98.8333,78.5 81.1667,78.5 63.5,78.5C 63.8333,77.1667 64.1667,75.8333 64.5,74.5C 68.183,70.8197 72.183,67.4864 76.5,64.5 Z"/></g>
<g><path style="opacity:1" fill="#b98518" d="M 237.5,77.5 C 235.393,78.4682 233.059,78.8016 230.5,78.5C 230.177,74.774 230.511,71.1073 231.5,67.5C 237.364,68.624 239.364,71.9574 237.5,77.5 Z"/></g>
<g><path style="opacity:1" fill="#c4a352" d="M 126.5,73.5 C 122.896,76.9749 118.896,79.9749 114.5,82.5C 114.733,80.9382 115.4,79.6049 116.5,78.5C 119.369,75.9779 122.703,74.3112 126.5,73.5 Z"/></g>
<g><path style="opacity:1" fill="#b4964d" d="M 189.5,67.5 C 189.5,70.5 189.5,73.5 189.5,76.5C 189.157,78.2252 188.157,78.7252 186.5,78C 184.093,75.8169 181.76,73.6503 179.5,71.5C 182.33,71.6941 184.996,72.3608 187.5,73.5C 187.025,70.9179 187.692,68.9179 189.5,67.5 Z"/></g>
<g><path style="opacity:1" fill="#f7ecc5" d="M 130.5,71.5 C 128.334,73.8367 126.334,76.3367 124.5,79C 120.723,80.6096 117.056,82.4429 113.5,84.5C 113.833,83.8333 114.167,83.1667 114.5,82.5C 118.896,79.9749 122.896,76.9749 126.5,73.5C 127.605,72.3995 128.938,71.7329 130.5,71.5 Z"/></g>
<g><path style="opacity:1" fill="#e8b74b" d="M 63.5,78.5 C 81.1667,78.5 98.8333,78.5 116.5,78.5C 115.4,79.6049 114.733,80.9382 114.5,82.5C 96.1667,82.5 77.8333,82.5 59.5,82.5C 61.1392,81.5275 62.4726,80.1942 63.5,78.5 Z"/></g>
<g><path style="opacity:1" fill="#fbfaed" d="M 149.5,59.5 C 149.67,60.8221 149.337,61.9887 148.5,63C 145.72,63.3697 143.72,64.3697 142.5,66C 142.957,66.414 143.291,66.914 143.5,67.5C 140.914,68.48 138.247,68.8134 135.5,68.5C 134.783,71.3229 133.783,73.9896 132.5,76.5C 131.448,76.3505 130.448,76.5172 129.5,77C 129.833,77.3333 130.167,77.6667 130.5,78C 127.637,80.2486 123.97,81.9153 119.5,83C 118.773,84.3988 118.273,85.8988 118,87.5C 116.391,86.8499 114.891,87.3499 113.5,89C 112.207,89.49 110.873,89.6567 109.5,89.5C 109.719,90.675 109.386,91.675 108.5,92.5C 105.328,93.3314 103.662,95.3314 103.5,98.5C 100.119,100.346 96.4527,101.346 92.5,101.5C 92.5,101.167 92.5,100.833 92.5,100.5C 99.5186,95.1425 106.519,89.8092 113.5,84.5C 117.056,82.4429 120.723,80.6096 124.5,79C 126.334,76.3367 128.334,73.8367 130.5,71.5C 131.167,70.1667 132.167,69.1667 133.5,68.5C 134.605,67.3995 135.938,66.7329 137.5,66.5C 140.794,64.8423 143.794,62.6756 146.5,60C 147.448,59.5172 148.448,59.3505 149.5,59.5 Z"/></g>
<g><path style="opacity:1" fill="#948053" d="M 67.5,46.5 C 63.3629,51.1628 58.8629,55.4962 54,59.5C 51.1996,65.0023 47.8663,70.0023 44,74.5C 42.9887,75.3366 41.8221,75.67 40.5,75.5C 40.7076,77.9201 40.3742,80.2534 39.5,82.5C 40,83.5 40.5,84.5 41,85.5C 41.4186,84.3279 42.0853,83.3279 43,82.5C 44.1475,83.4581 45.1475,83.1247 46,81.5C 46.1118,78.5529 47.6118,77.2196 50.5,77.5C 50.5,76.5 50.5,75.5 50.5,74.5C 51.5,74.5 52.5,74.5 53.5,74.5C 50.4152,78.2458 47.7485,82.2458 45.5,86.5C 42.4789,89.3664 39.9789,92.6997 38,96.5C 35.0166,101.949 32.5166,107.616 30.5,113.5C 26.5607,124.292 23.894,135.292 22.5,146.5C 22.334,141.156 22.5006,135.823 23,130.5C 25.7052,125.23 27.0385,119.563 27,113.5C 28.899,110.318 30.7323,107.151 32.5,104C 31.107,99.5438 31.9403,95.7104 35,92.5C 36.0495,93.5171 37.2161,93.6838 38.5,93C 38.1667,92.6667 37.8333,92.3333 37.5,92C 40.4543,88.3117 39.9543,85.145 36,82.5C 33.8593,85.4721 31.8593,88.4721 30,91.5C 29.5361,96.4518 27.0361,99.7852 22.5,101.5C 26.3249,93.1807 30.6582,85.1807 35.5,77.5C 36.1667,77.5 36.5,77.1667 36.5,76.5C 44.855,66.4796 53.855,57.1462 63.5,48.5C 64.6049,47.3995 65.9382,46.7329 67.5,46.5 Z"/></g>
<g><path style="opacity:1" fill="#d9bd74" d="M 63.5,74.5 C 63.8333,74.5 64.1667,74.5 64.5,74.5C 64.1667,75.8333 63.8333,77.1667 63.5,78.5C 62.4726,80.1942 61.1392,81.5275 59.5,82.5C 59.1667,82.5 58.8333,82.5 58.5,82.5C 58.1667,82.5 57.8333,82.5 57.5,82.5C 59.1153,79.5505 61.1153,76.8838 63.5,74.5 Z"/></g>
<g><path style="opacity:1" fill="#e5b653" d="M 245.5,76.5 C 247.515,78.2195 249.181,80.2195 250.5,82.5C 249.833,82.5 249.167,82.5 248.5,82.5C 241.833,82.5 235.167,82.5 228.5,82.5C 228.5,81.1667 228.5,79.8333 228.5,78.5C 229.167,78.5 229.833,78.5 230.5,78.5C 233.059,78.8016 235.393,78.4682 237.5,77.5C 240.385,77.8064 243.052,77.4731 245.5,76.5 Z"/></g>
<g><path style="opacity:1" fill="#ac8117" d="M 58.5,83.5 C 68.5222,83.1681 78.5222,83.5015 88.5,84.5C 88.7093,85.086 89.0426,85.586 89.5,86C 85.0794,86.4169 80.746,87.2502 76.5,88.5C 77.1667,88.8333 77.8333,89.1667 78.5,89.5C 76.5213,91.2637 76.188,93.2637 77.5,95.5C 78.7362,94.7542 80.0695,94.4208 81.5,94.5C 81.7135,96.1439 81.3802,97.6439 80.5,99C 77.6353,99.1829 74.9686,99.6829 72.5,100.5C 64.1667,100.5 55.8333,100.5 47.5,100.5C 47.4142,99.5041 47.7476,98.6708 48.5,98C 52.4868,97.8223 53.8201,95.989 52.5,92.5C 53.7742,88.9994 55.7742,85.9994 58.5,83.5 Z"/></g>
<g><path style="opacity:1" fill="#b78c23" d="M 58.5,83.5 C 58.5,83.1667 58.5,82.8333 58.5,82.5C 58.8333,82.5 59.1667,82.5 59.5,82.5C 77.8333,82.5 96.1667,82.5 114.5,82.5C 114.167,83.1667 113.833,83.8333 113.5,84.5C 106.519,89.8092 99.5186,95.1425 92.5,100.5C 91.1667,100.5 89.8333,100.5 88.5,100.5C 83.1667,100.5 77.8333,100.5 72.5,100.5C 74.9686,99.6829 77.6353,99.1829 80.5,99C 81.3802,97.6439 81.7135,96.1439 81.5,94.5C 80.0695,94.4208 78.7362,94.7542 77.5,95.5C 76.188,93.2637 76.5213,91.2637 78.5,89.5C 77.8333,89.1667 77.1667,88.8333 76.5,88.5C 80.746,87.2502 85.0794,86.4169 89.5,86C 89.0426,85.586 88.7093,85.086 88.5,84.5C 78.5222,83.5015 68.5222,83.1681 58.5,83.5 Z"/></g>
<g><path style="opacity:1" fill="#9d7126" d="M 248.5,82.5 C 249.167,82.5 249.833,82.5 250.5,82.5C 251.794,83.2899 252.961,84.2899 254,85.5C 256.827,89.1554 258.993,93.1554 260.5,97.5C 257.302,95.461 254.969,92.6276 253.5,89C 250.927,88.5723 248.594,88.9057 246.5,90C 247.458,88.8525 247.125,87.8525 245.5,87C 247.167,86.6667 248.833,86.3333 250.5,86C 249.177,85.1841 248.511,84.0174 248.5,82.5 Z"/></g>
<g><path style="opacity:1" fill="#867959" d="M 254.5,58.5 C 258.167,61.5 261.5,64.8333 264.5,68.5C 275.148,81.4584 283.481,95.7918 289.5,111.5C 291.325,118.465 292.991,125.465 294.5,132.5C 296.29,146.424 296.956,160.424 296.5,174.5C 294.477,183.907 291.81,193.24 288.5,202.5C 287.359,205.254 286.025,207.921 284.5,210.5C 285.645,204.896 287.479,199.563 290,194.5C 290.495,192.527 290.662,190.527 290.5,188.5C 297.786,158.379 295.12,129.379 282.5,101.5C 279.248,95.6056 276.082,89.6056 273,83.5C 268.693,78.1694 264.693,72.5028 261,66.5C 259.292,64.4565 257.292,62.7899 255,61.5C 254.517,60.552 254.351,59.552 254.5,58.5 Z"/></g>
<g><path style="opacity:1" fill="#e0cc98" d="M 189.5,67.5 C 202.5,67.5 215.5,67.5 228.5,67.5C 228.5,71.1667 228.5,74.8333 228.5,78.5C 228.5,79.8333 228.5,81.1667 228.5,82.5C 228.5,88.5 228.5,94.5 228.5,100.5C 228.5,101.833 228.5,103.167 228.5,104.5C 228.5,106.167 228.5,107.833 228.5,109.5C 227.504,96.0102 227.171,82.3435 227.5,68.5C 215.167,68.5 202.833,68.5 190.5,68.5C 190.806,71.3854 190.473,74.0521 189.5,76.5C 189.5,73.5 189.5,70.5 189.5,67.5 Z"/></g>
<g><path style="opacity:1" fill="#252821" d="M 264.5,68.5 C 267.615,70.6178 270.948,72.2845 274.5,73.5C 273.367,78.8981 275.2,82.8981 280,85.5C 282.185,92.8685 285.185,99.8685 289,106.5C 289.494,108.134 289.66,109.801 289.5,111.5C 283.481,95.7918 275.148,81.4584 264.5,68.5 Z"/></g>
<g><path style="opacity:1" fill="#faf4d5" d="M 63.5,74.5 C 61.1153,76.8838 59.1153,79.5505 57.5,82.5C 53.025,87.4372 49.025,92.7705 45.5,98.5C 45.1667,98.5 44.8333,98.5 44.5,98.5C 44.9612,96.4496 45.6279,94.4496 46.5,92.5C 48.9783,91.2776 49.9783,89.2776 49.5,86.5C 50.5,86.5 51.5,86.5 52.5,86.5C 54.7315,83.2395 57.0648,79.9061 59.5,76.5C 60.5769,75.2949 61.9102,74.6282 63.5,74.5 Z"/></g>
<g><path style="opacity:1" fill="#a87510" d="M 228.5,82.5 C 235.167,82.5 241.833,82.5 248.5,82.5C 248.511,84.0174 249.177,85.1841 250.5,86C 248.833,86.3333 247.167,86.6667 245.5,87C 247.125,87.8525 247.458,88.8525 246.5,90C 248.594,88.9057 250.927,88.5723 253.5,89C 254.969,92.6276 257.302,95.461 260.5,97.5C 261.167,97.5 261.5,97.8333 261.5,98.5C 261.672,99.4916 261.338,100.158 260.5,100.5C 249.833,100.5 239.167,100.5 228.5,100.5C 228.5,94.5 228.5,88.5 228.5,82.5 Z"/></g>
<g><path style="opacity:1" fill="#a3802a" d="M 57.5,82.5 C 57.8333,82.5 58.1667,82.5 58.5,82.5C 58.5,82.8333 58.5,83.1667 58.5,83.5C 55.7742,85.9994 53.7742,88.9994 52.5,92.5C 53.8201,95.989 52.4868,97.8223 48.5,98C 47.7476,98.6708 47.4142,99.5041 47.5,100.5C 46.1667,100.5 45.5,99.8333 45.5,98.5C 49.025,92.7705 53.025,87.4372 57.5,82.5 Z"/></g>
<g><path style="opacity:1" fill="#262b1f" d="M 35.5,77.5 C 30.6582,85.1807 26.3249,93.1807 22.5,101.5C 22.5,101.833 22.5,102.167 22.5,102.5C 21.1429,103.59 20.1429,104.924 19.5,106.5C 19.3433,105.127 19.51,103.793 20,102.5C 24.4497,94.243 28.6164,85.9097 32.5,77.5C 33.5,77.5 34.5,77.5 35.5,77.5 Z"/></g>
<g><path style="opacity:1" fill="#f2c360" d="M 44.5,98.5 C 44.8333,98.5 45.1667,98.5 45.5,98.5C 45.5,99.8333 46.1667,100.5 47.5,100.5C 55.8333,100.5 64.1667,100.5 72.5,100.5C 77.8333,100.5 83.1667,100.5 88.5,100.5C 87.1667,101.833 85.8333,103.167 84.5,104.5C 83.5,104.5 82.5,104.5 81.5,104.5C 76.5,104.5 71.5,104.5 66.5,104.5C 58.5,104.5 50.5,104.5 42.5,104.5C 43.4408,102.95 44.1075,101.284 44.5,99.5C 44.5,99.1667 44.5,98.8333 44.5,98.5 Z"/></g>
<g><path style="opacity:1" fill="#e7cc8a" d="M 88.5,100.5 C 89.8333,100.5 91.1667,100.5 92.5,100.5C 92.5,100.833 92.5,101.167 92.5,101.5C 89.8508,103.14 87.1841,104.807 84.5,106.5C 84.5,105.833 84.5,105.167 84.5,104.5C 85.8333,103.167 87.1667,101.833 88.5,100.5 Z"/></g>
<g><path style="opacity:1" fill="#dfbd7a" d="M 261.5,98.5 C 263.539,99.911 264.539,101.911 264.5,104.5C 263.5,104.5 262.5,104.5 261.5,104.5C 260.766,103.292 260.433,101.959 260.5,100.5C 261.338,100.158 261.672,99.4916 261.5,98.5 Z"/></g>
<g><path style="opacity:1" fill="#edb758" d="M 228.5,100.5 C 239.167,100.5 249.833,100.5 260.5,100.5C 260.433,101.959 260.766,103.292 261.5,104.5C 255.167,104.5 248.833,104.5 242.5,104.5C 237.833,104.5 233.167,104.5 228.5,104.5C 228.5,103.167 228.5,101.833 228.5,100.5 Z"/></g>
<g><path style="opacity:1" fill="#fbf4d8" d="M 92.5,101.5 C 90.0011,104.169 87.6677,107.002 85.5,110C 83.257,111.136 80.9237,111.97 78.5,112.5C 80.1667,110.167 82.1667,108.167 84.5,106.5C 87.1841,104.807 89.8508,103.14 92.5,101.5 Z"/></g>
<g><path style="opacity:1" fill="#9e630b" d="M 42.5,104.5 C 50.5,104.5 58.5,104.5 66.5,104.5C 69.7294,105.695 70.0627,107.362 67.5,109.5C 66.914,109.291 66.414,108.957 66,108.5C 65.5045,110.473 65.3379,112.473 65.5,114.5C 56.3562,115.085 47.3562,115.752 38.5,116.5C 38.1667,116.5 37.8333,116.5 37.5,116.5C 38.6109,112.277 40.2776,108.277 42.5,104.5 Z"/></g>
<g><path style="opacity:1" fill="#995806" d="M 242.5,104.5 C 248.833,104.5 255.167,104.5 261.5,104.5C 262.5,104.5 263.5,104.5 264.5,104.5C 264.259,108.019 265.593,110.685 268.5,112.5C 269.167,112.5 269.5,112.833 269.5,113.5C 269.737,114.791 269.404,115.791 268.5,116.5C 262.986,115.833 257.319,115.167 251.5,114.5C 248.925,112.579 246.258,110.745 243.5,109C 244.308,108.692 244.975,108.192 245.5,107.5C 244.007,106.859 243.007,105.859 242.5,104.5 Z"/></g>
<g><path style="opacity:0.025" fill="#edeeef" d="M 292.5,95.5 C 296.531,102.251 299.197,109.585 300.5,117.5C 297.656,110.306 294.989,102.973 292.5,95.5 Z"/></g>
<g><path style="opacity:1" fill="#aa7314" d="M 66.5,104.5 C 71.5,104.5 76.5,104.5 81.5,104.5C 78.8837,108.129 76.2171,111.796 73.5,115.5C 73.0269,116.906 72.0269,117.573 70.5,117.5C 59.915,116.524 49.2483,116.191 38.5,116.5C 47.3562,115.752 56.3562,115.085 65.5,114.5C 65.3379,112.473 65.5045,110.473 66,108.5C 66.414,108.957 66.914,109.291 67.5,109.5C 70.0627,107.362 69.7294,105.695 66.5,104.5 Z"/></g>
<g><path style="opacity:1" fill="#906b33" d="M 264.5,104.5 C 266.771,106.612 268.104,109.279 268.5,112.5C 265.593,110.685 264.259,108.019 264.5,104.5 Z"/></g>
<g><path style="opacity:1" fill="#f4efda" d="M 45.5,86.5 C 46.0768,89.5497 44.9101,91.5497 42,92.5C 41.725,96.0691 40.5583,99.2357 38.5,102C 38.6667,102.833 38.8333,103.667 39,104.5C 40.7038,102.627 42.5372,100.96 44.5,99.5C 44.1075,101.284 43.4408,102.95 42.5,104.5C 40.2776,108.277 38.6109,112.277 37.5,116.5C 37.1667,117.833 36.8333,119.167 36.5,120.5C 35.8333,120.5 35.5,120.833 35.5,121.5C 35.5,122.167 35.5,122.833 35.5,123.5C 34.0687,124.78 33.4021,126.447 33.5,128.5C 33.1667,128.5 32.8333,128.5 32.5,128.5C 33.3314,120.943 35.3314,113.776 38.5,107C 37.9747,106.308 37.3081,105.808 36.5,105.5C 34.9848,107.547 34.1515,109.881 34,112.5C 32.9887,113.337 31.8221,113.67 30.5,113.5C 32.5166,107.616 35.0166,101.949 38,96.5C 39.9789,92.6997 42.4789,89.3664 45.5,86.5 Z"/></g>
<g><path style="opacity:1" fill="#ac863f" d="M 81.5,104.5 C 82.5,104.5 83.5,104.5 84.5,104.5C 84.5,105.167 84.5,105.833 84.5,106.5C 82.1667,108.167 80.1667,110.167 78.5,112.5C 76.5887,113.075 74.922,114.075 73.5,115.5C 76.2171,111.796 78.8837,108.129 81.5,104.5 Z"/></g>
<g><path style="opacity:1" fill="#a2630f" d="M 228.5,104.5 C 233.167,104.5 237.833,104.5 242.5,104.5C 243.007,105.859 244.007,106.859 245.5,107.5C 244.975,108.192 244.308,108.692 243.5,109C 246.258,110.745 248.925,112.579 251.5,114.5C 257.319,115.167 262.986,115.833 268.5,116.5C 257.449,116.789 246.449,116.455 235.5,115.5C 232.573,114.243 230.239,112.243 228.5,109.5C 228.5,107.833 228.5,106.167 228.5,104.5 Z"/></g>
<g><path style="opacity:1" fill="#0e2a33" d="M 229.5,249.5 C 228.391,249.557 227.391,249.89 226.5,250.5C 222.987,250.307 219.654,250.974 216.5,252.5C 213.643,251.925 211.976,250.258 211.5,247.5C 208.5,247.5 205.5,247.5 202.5,247.5C 196.575,247.192 190.741,247.525 185,248.5C 184.536,247.906 184.369,247.239 184.5,246.5C 195.853,246.832 207.186,246.499 218.5,245.5C 218.376,244.893 218.043,244.56 217.5,244.5C 214.5,242.332 212,239.666 210,236.5C 209.333,209.5 209.333,182.5 210,155.5C 211.707,153.963 213.207,152.296 214.5,150.5C 216.5,149.167 218.167,147.5 219.5,145.5C 207.66,144.175 195.66,144.175 183.5,145.5C 183.624,146.107 183.957,146.44 184.5,146.5C 183.663,151.17 181.997,155.503 179.5,159.5C 174.995,166.505 170.995,173.839 167.5,181.5C 163.362,189.105 159.195,196.771 155,204.5C 154.148,203.429 153.315,202.429 152.5,201.5C 149.512,193.518 145.512,186.185 140.5,179.5C 135.614,169.397 130.448,159.397 125,149.5C 124.51,148.207 124.343,146.873 124.5,145.5C 112.993,144.176 101.327,144.176 89.5,145.5C 89.6236,146.107 89.9569,146.44 90.5,146.5C 93.7798,149.043 96.6132,152.043 99,155.5C 99.6667,182.5 99.6667,209.5 99,236.5C 97.5325,239.787 95.3659,242.454 92.5,244.5C 90.0673,245.548 90.0673,246.214 92.5,246.5C 94.5871,248.913 96.5871,251.413 98.5,254C 98.3333,254.5 98.1667,255 98,255.5C 96.2415,252.337 94.2415,252.004 92,254.5C 90.6062,252.598 88.7729,252.265 86.5,253.5C 80.7611,252.634 78.4278,249.301 79.5,243.5C 79.1668,209.493 79.5001,175.493 80.5,141.5C 105.108,122.616 129.608,103.616 154,84.5C 179.534,102.528 204.367,121.528 228.5,141.5C 229.5,177.494 229.833,213.494 229.5,249.5 Z"/></g>
<g><path style="opacity:1" fill="#fcf6db" d="M 171.5,66.5 C 174.184,68.1933 176.851,69.86 179.5,71.5C 181.76,73.6503 184.093,75.8169 186.5,78C 188.157,78.7252 189.157,78.2252 189.5,76.5C 190.473,74.0521 190.806,71.3854 190.5,68.5C 202.833,68.5 215.167,68.5 227.5,68.5C 227.171,82.3435 227.504,96.0102 228.5,109.5C 230.239,112.243 232.573,114.243 235.5,115.5C 237.607,117.727 239.94,119.727 242.5,121.5C 244.833,123.5 247.167,125.5 249.5,127.5C 245.773,127.805 243.106,126.305 241.5,123C 238.374,120.598 235.04,118.431 231.5,116.5C 230.396,114.611 229.063,112.945 227.5,111.5C 226.501,97.5159 226.167,83.5159 226.5,69.5C 214.833,69.5 203.167,69.5 191.5,69.5C 191.664,72.1873 191.497,74.854 191,77.5C 187.576,80.4015 184.742,79.9015 182.5,76C 177.979,73.6339 174.313,70.4673 171.5,66.5 Z"/></g>
<g><path style="opacity:1" fill="#e9ba56" d="M 37.5,116.5 C 37.8333,116.5 38.1667,116.5 38.5,116.5C 49.2483,116.191 59.915,116.524 70.5,117.5C 69.5,119.167 68.1667,120.5 66.5,121.5C 56.6806,120.506 46.6806,120.173 36.5,120.5C 36.8333,119.167 37.1667,117.833 37.5,116.5 Z"/></g>
<g><path style="opacity:1" fill="#e6b45c" d="M 269.5,113.5 C 270.268,115.715 270.935,118.048 271.5,120.5C 271.167,120.5 270.833,120.5 270.5,120.5C 267.833,120.5 265.167,120.5 262.5,120.5C 255.646,120.176 248.979,120.509 242.5,121.5C 239.94,119.727 237.607,117.727 235.5,115.5C 246.449,116.455 257.449,116.789 268.5,116.5C 269.404,115.791 269.737,114.791 269.5,113.5 Z"/></g>
<g><path style="opacity:1" fill="#a45e09" d="M 38.5,121.5 C 44.8682,121.17 51.2015,121.504 57.5,122.5C 58.3094,124.071 58.6427,125.738 58.5,127.5C 56.4727,127.338 54.4727,127.505 52.5,128C 53.7908,130.09 53.1242,131.424 50.5,132C 45.1667,132.667 39.8333,132.667 34.5,132C 33.6634,130.989 33.33,129.822 33.5,128.5C 33.4021,126.447 34.0687,124.78 35.5,123.5C 35.5,125.833 35.5,128.167 35.5,130.5C 40.6871,129.949 46.0204,129.949 51.5,130.5C 51.3015,128.04 50.6348,125.707 49.5,123.5C 45.6973,122.896 42.0306,122.23 38.5,121.5 Z"/></g>
<g><path style="opacity:1" fill="#a05d16" d="M 262.5,120.5 C 259.535,121.21 256.535,122.21 253.5,123.5C 252.446,123.32 251.446,122.987 250.5,122.5C 250.167,122.833 249.833,123.167 249.5,123.5C 250.859,125.518 252.193,127.518 253.5,129.5C 251.938,129.267 250.605,128.6 249.5,127.5C 247.167,125.5 244.833,123.5 242.5,121.5C 248.979,120.509 255.646,120.176 262.5,120.5 Z"/></g>
<g><path style="opacity:1" fill="#a45304" d="M 35.5,121.5 C 36.5,121.5 37.5,121.5 38.5,121.5C 42.0306,122.23 45.6973,122.896 49.5,123.5C 50.6348,125.707 51.3015,128.04 51.5,130.5C 46.0204,129.949 40.6871,129.949 35.5,130.5C 35.5,128.167 35.5,125.833 35.5,123.5C 35.5,122.833 35.5,122.167 35.5,121.5 Z"/></g>
<g><path style="opacity:1" fill="#ab701f" d="M 35.5,121.5 C 35.5,120.833 35.8333,120.5 36.5,120.5C 46.6806,120.173 56.6806,120.506 66.5,121.5C 64.1162,123.885 61.4495,125.885 58.5,127.5C 58.6427,125.738 58.3094,124.071 57.5,122.5C 51.2015,121.504 44.8682,121.17 38.5,121.5C 37.5,121.5 36.5,121.5 35.5,121.5 Z"/></g>
<g><path style="opacity:1" fill="#dbe4e6" d="M 213.5,121.5 C 222.126,128.124 230.459,135.124 238.5,142.5C 236.7,143.605 235.533,142.939 235,140.5C 233.644,141.38 232.144,141.714 230.5,141.5C 230.832,177.671 230.498,213.671 229.5,249.5C 229.833,213.494 229.5,177.494 228.5,141.5C 204.367,121.528 179.534,102.528 154,84.5C 129.608,103.616 105.108,122.616 80.5,141.5C 79.5001,175.493 79.1668,209.493 79.5,243.5C 79.1667,243.5 78.8333,243.5 78.5,243.5C 77.7241,209.846 77.2241,176.179 77,142.5C 75.6054,141.185 74.6054,141.519 74,143.5C 73.2825,142.549 72.4491,142.383 71.5,143C 70.252,144.4 69.252,145.9 68.5,147.5C 67.0413,147.433 65.7079,147.766 64.5,148.5C 63.7978,147.884 62.7978,147.884 61.5,148.5C 91.8721,123.968 122.705,99.9677 154,76.5C 174.266,90.9339 194.1,105.934 213.5,121.5 Z"/></g>
<g><path style="opacity:1" fill="#847959" d="M 22.5,102.5 C 22.5542,107.435 21.0542,111.769 18,115.5C 16.3236,125.223 14.3236,134.889 12,144.5C 11.5002,153.494 11.3336,162.494 11.5,171.5C 8.9033,149.325 11.57,127.658 19.5,106.5C 20.1429,104.924 21.1429,103.59 22.5,102.5 Z"/></g>
<g><path style="opacity:1" fill="#b77c21" d="M 271.5,129.5 C 273.048,129.821 273.715,130.821 273.5,132.5C 269.774,132.823 266.107,132.489 262.5,131.5C 265.193,129.73 268.193,129.063 271.5,129.5 Z"/></g>
<g><path style="opacity:0.037" fill="#dfe1e2" d="M 301.5,121.5 C 303.786,128.875 305.119,136.541 305.5,144.5C 305.167,144.5 304.833,144.5 304.5,144.5C 303.593,136.82 302.593,129.153 301.5,121.5 Z"/></g>
<g><path style="opacity:1" fill="#b17831" d="M 58.5,127.5 C 58.5,127.833 58.5,128.167 58.5,128.5C 54.5185,131.476 50.5185,134.476 46.5,137.5C 46.5858,136.504 46.2524,135.671 45.5,135C 40.8452,134.501 36.1785,134.334 31.5,134.5C 31.8333,132.5 32.1667,130.5 32.5,128.5C 32.8333,128.5 33.1667,128.5 33.5,128.5C 33.33,129.822 33.6634,130.989 34.5,132C 39.8333,132.667 45.1667,132.667 50.5,132C 53.1242,131.424 53.7908,130.09 52.5,128C 54.4727,127.505 56.4727,127.338 58.5,127.5 Z"/></g>
<g><path style="opacity:0.243" fill="#e1e3e5" d="M 5.5,124.5 C 5.57007,128.425 4.90341,132.091 3.5,135.5C 3.42993,131.575 4.09659,127.909 5.5,124.5 Z"/></g>
<g><path style="opacity:1" fill="#974e09" d="M 262.5,120.5 C 265.167,120.5 267.833,120.5 270.5,120.5C 270.963,123.482 271.296,126.482 271.5,129.5C 268.193,129.063 265.193,129.73 262.5,131.5C 266.107,132.489 269.774,132.823 273.5,132.5C 274.765,136.454 274.765,140.454 273.5,144.5C 269.131,141.449 264.797,138.449 260.5,135.5C 258.142,133.471 255.808,131.471 253.5,129.5C 252.193,127.518 250.859,125.518 249.5,123.5C 249.833,123.167 250.167,122.833 250.5,122.5C 251.446,122.987 252.446,123.32 253.5,123.5C 256.535,122.21 259.535,121.21 262.5,120.5 Z"/></g>
<g><path style="opacity:1" fill="#936331" d="M 270.5,120.5 C 270.833,120.5 271.167,120.5 271.5,120.5C 271.935,123.157 272.935,125.491 274.5,127.5C 274.5,128.167 274.5,128.833 274.5,129.5C 276.102,135.717 276.768,142.051 276.5,148.5C 275.833,148.5 275.167,148.5 274.5,148.5C 273.167,147.5 271.833,146.5 270.5,145.5C 266.833,142.5 263.5,139.167 260.5,135.5C 264.797,138.449 269.131,141.449 273.5,144.5C 274.765,140.454 274.765,136.454 273.5,132.5C 273.715,130.821 273.048,129.821 271.5,129.5C 271.296,126.482 270.963,123.482 270.5,120.5 Z"/></g>
<g><path style="opacity:1" fill="#9a5314" d="M 31.5,134.5 C 36.1785,134.334 40.8452,134.501 45.5,135C 46.2524,135.671 46.5858,136.504 46.5,137.5C 42.4617,140.512 38.4617,143.512 34.5,146.5C 33.1667,146.833 31.8333,147.167 30.5,147.5C 30.5045,143.466 30.8379,139.466 31.5,135.5C 31.5,135.167 31.5,134.833 31.5,134.5 Z"/></g>
<g><path style="opacity:1" fill="#262a24" d="M 294.5,132.5 C 295.833,135.5 297.167,138.5 298.5,141.5C 298.666,151.172 298.5,160.839 298,170.5C 297.79,172.058 297.29,173.391 296.5,174.5C 296.956,160.424 296.29,146.424 294.5,132.5 Z"/></g>
<g><path style="opacity:1" fill="#faf8ef" d="M 32.5,128.5 C 32.1667,130.5 31.8333,132.5 31.5,134.5C 31.5,134.833 31.5,135.167 31.5,135.5C 30.7784,135.918 30.2784,136.584 30,137.5C 27.7384,148.065 27.0717,158.732 28,169.5C 28.9853,171.175 29.8186,172.842 30.5,174.5C 30.7959,176.403 31.4625,178.07 32.5,179.5C 32.5,179.833 32.5,180.167 32.5,180.5C 33.1495,182.435 33.4828,184.435 33.5,186.5C 46.3226,187.495 59.3226,187.829 72.5,187.5C 72.4413,189.722 71.2747,190.722 69,190.5C 57.3226,189.187 45.6559,189.187 34,190.5C 32.8315,191.009 31.9981,191.842 31.5,193C 34.6316,196.844 35.6316,201.01 34.5,205.5C 35.675,205.281 36.675,205.614 37.5,206.5C 38.6703,209.209 39.837,211.875 41,214.5C 41.414,214.043 41.914,213.709 42.5,213.5C 43.5237,214.853 44.857,215.52 46.5,215.5C 45.8971,221.172 48.0638,225.839 53,229.5C 54.2022,231.677 54.7022,234.011 54.5,236.5C 48.3995,230.069 43.0661,223.069 38.5,215.5C 38.5,214.833 38.1667,214.5 37.5,214.5C 34.0066,206.178 30.5066,197.845 27,189.5C 26.0644,182.916 24.5644,176.583 22.5,170.5C 22.5,162.5 22.5,154.5 22.5,146.5C 23.894,135.292 26.5607,124.292 30.5,113.5C 31.8221,113.67 32.9887,113.337 34,112.5C 34.1515,109.881 34.9848,107.547 36.5,105.5C 37.3081,105.808 37.9747,106.308 38.5,107C 35.3314,113.776 33.3314,120.943 32.5,128.5 Z"/></g>
<g><path style="opacity:1" fill="#f9fbfb" d="M 90.5,146.5 C 101.654,145.505 112.988,145.172 124.5,145.5C 124.343,146.873 124.51,148.207 125,149.5C 130.448,159.397 135.614,169.397 140.5,179.5C 139.908,185.142 141.741,189.809 146,193.5C 146.716,197.292 148.883,199.958 152.5,201.5C 153.315,202.429 154.148,203.429 155,204.5C 159.195,196.771 163.362,189.105 167.5,181.5C 168.721,180.972 169.887,180.305 171,179.5C 171.346,177.152 172.513,175.319 174.5,174C 174.043,173.586 173.709,173.086 173.5,172.5C 175.543,171.421 176.876,169.754 177.5,167.5C 178.325,166.614 179.325,166.281 180.5,166.5C 180.007,164.194 179.674,161.861 179.5,159.5C 185.392,157.13 187.392,152.963 185.5,147C 195.161,146.5 204.828,146.334 214.5,146.5C 214.5,147.833 214.5,149.167 214.5,150.5C 213.207,152.296 211.707,153.963 210,155.5C 209.333,182.5 209.333,209.5 210,236.5C 212,239.666 214.5,242.332 217.5,244.5C 205.833,245.833 194.167,245.833 182.5,244.5C 183.833,243.5 185.167,242.5 186.5,241.5C 187.482,240.859 188.482,240.193 189.5,239.5C 190.833,219.833 190.833,200.167 189.5,180.5C 188.893,180.624 188.56,180.957 188.5,181.5C 188.167,182.833 187.833,184.167 187.5,185.5C 178.073,201.35 169.406,217.684 161.5,234.5C 159.221,237.794 156.888,241.128 154.5,244.5C 149.14,235.104 143.806,225.771 138.5,216.5C 132.456,205.377 126.789,194.044 121.5,182.5C 121.44,181.957 121.107,181.624 120.5,181.5C 119.173,199.996 119.173,218.329 120.5,236.5C 121.539,239.921 123.539,242.588 126.5,244.5C 115.167,245.833 103.833,245.833 92.5,244.5C 95.3659,242.454 97.5325,239.787 99,236.5C 99.6667,209.5 99.6667,182.5 99,155.5C 96.6132,152.043 93.7798,149.043 90.5,146.5 Z"/></g>
<g><path style="opacity:1" fill="#daad61" d="M 34.5,146.5 C 33.4019,147.397 33.4019,148.23 34.5,149C 38.6993,149.528 42.6993,150.361 46.5,151.5C 41.1667,151.5 35.8333,151.5 30.5,151.5C 30.5,150.167 30.5,148.833 30.5,147.5C 31.8333,147.167 33.1667,146.833 34.5,146.5 Z"/></g>
<g><path style="opacity:1" fill="#d7e2e6" d="M 219.5,145.5 C 218.167,147.5 216.5,149.167 214.5,150.5C 214.5,149.167 214.5,147.833 214.5,146.5C 204.828,146.334 195.161,146.5 185.5,147C 187.392,152.963 185.392,157.13 179.5,159.5C 181.997,155.503 183.663,151.17 184.5,146.5C 195.988,145.505 207.655,145.172 219.5,145.5 Z"/></g>
<g><path style="opacity:1" fill="#f7ecd4" d="M 58.5,128.5 C 56.0094,131.959 53.3427,135.292 50.5,138.5C 46.7266,140.43 43.0599,142.597 39.5,145C 38.6634,146.011 38.33,147.178 38.5,148.5C 45.8219,148.591 52.9886,149.591 60,151.5C 62.1829,151.478 63.6829,150.478 64.5,148.5C 65.7079,147.766 67.0413,147.433 68.5,147.5C 70.099,147.232 71.4324,147.566 72.5,148.5C 68.827,150 65.4937,152 62.5,154.5C 60.5,154.5 58.5,154.5 56.5,154.5C 53.5475,152.59 50.2142,151.59 46.5,151.5C 42.6993,150.361 38.6993,149.528 34.5,149C 33.4019,148.23 33.4019,147.397 34.5,146.5C 38.4617,143.512 42.4617,140.512 46.5,137.5C 50.5185,134.476 54.5185,131.476 58.5,128.5 Z"/></g>
<g><path style="opacity:1" fill="#d0a568" d="M 274.5,148.5 C 275.167,148.5 275.833,148.5 276.5,148.5C 276.5,149.5 276.5,150.5 276.5,151.5C 269.833,151.5 263.167,151.5 256.5,151.5C 262.689,150.083 269.023,149.583 275.5,150C 274.944,149.617 274.611,149.117 274.5,148.5 Z"/></g>
<g><path style="opacity:1" fill="#9b6629" d="M 256.5,151.5 C 263.167,151.5 269.833,151.5 276.5,151.5C 277.791,155.601 277.791,159.601 276.5,163.5C 276.167,163.5 275.833,163.5 275.5,163.5C 275.5,159.833 275.5,156.167 275.5,152.5C 268.825,152.334 262.158,152.5 255.5,153C 251.258,155.527 246.925,156.027 242.5,154.5C 242.833,154.5 243.167,154.5 243.5,154.5C 248.054,154.386 252.387,153.386 256.5,151.5 Z"/></g>
<g><path style="opacity:1" fill="#fcfbf5" d="M 276.5,114.5 C 277.641,117.254 278.975,119.921 280.5,122.5C 281.167,126.833 281.833,131.167 282.5,135.5C 283.196,146.152 283.53,156.819 283.5,167.5C 283.5,168.5 283.5,169.5 283.5,170.5C 281.921,173.247 280.588,176.247 279.5,179.5C 278.667,165.846 278.167,152.179 278,138.5C 277.818,135.774 277.318,133.107 276.5,130.5C 275.817,130.137 275.15,129.804 274.5,129.5C 274.5,128.833 274.5,128.167 274.5,127.5C 274.183,119.204 271.849,111.537 267.5,104.5C 269.329,103.718 270.829,104.384 272,106.5C 272.561,109.848 274.061,112.515 276.5,114.5 Z"/></g>
<g><path style="opacity:1" fill="#c6913c" d="M 238.5,148.5 C 240.86,149.865 242.527,151.865 243.5,154.5C 243.167,154.5 242.833,154.5 242.5,154.5C 240.833,154.5 239.167,154.5 237.5,154.5C 237.205,152.265 237.539,150.265 238.5,148.5 Z"/></g>
<g><path style="opacity:1" fill="#f6e5c2" d="M 270.5,145.5 C 271.833,146.5 273.167,147.5 274.5,148.5C 274.611,149.117 274.944,149.617 275.5,150C 269.023,149.583 262.689,150.083 256.5,151.5C 252.387,153.386 248.054,154.386 243.5,154.5C 242.527,151.865 240.86,149.865 238.5,148.5C 240.167,148.5 241.833,148.5 243.5,148.5C 245.847,153.264 249.18,153.764 253.5,150C 259.171,149.469 264.838,148.969 270.5,148.5C 270.5,147.5 270.5,146.5 270.5,145.5 Z"/></g>
<g><path style="opacity:1" fill="#ba9666" d="M 72.5,148.5 C 72.5,161.5 72.5,174.5 72.5,187.5C 59.3226,187.829 46.3226,187.495 33.5,186.5C 46.1667,186.5 58.8333,186.5 71.5,186.5C 71.5,184.5 71.5,182.5 71.5,180.5C 71.5,176.833 71.5,173.167 71.5,169.5C 71.5,167.5 71.5,165.5 71.5,163.5C 71.665,160.15 71.4983,156.817 71,153.5C 70.4387,152.978 69.772,152.645 69,152.5C 66.8458,153.274 64.6792,153.941 62.5,154.5C 65.4937,152 68.827,150 72.5,148.5 Z"/></g>
<g><path style="opacity:1" fill="#9b4e05" d="M 275.5,163.5 C 262.833,163.5 250.167,163.5 237.5,163.5C 237.5,160.5 237.5,157.5 237.5,154.5C 239.167,154.5 240.833,154.5 242.5,154.5C 246.925,156.027 251.258,155.527 255.5,153C 262.158,152.5 268.825,152.334 275.5,152.5C 275.5,156.167 275.5,159.833 275.5,163.5 Z"/></g>
<g><path style="opacity:0.741" fill="#949a9d" d="M 304.5,144.5 C 304.833,144.5 305.167,144.5 305.5,144.5C 306.777,151.629 306.777,158.629 305.5,165.5C 305.167,165.5 304.833,165.5 304.5,165.5C 304.5,158.5 304.5,151.5 304.5,144.5 Z"/></g>
<g><path style="opacity:1" fill="#d1ae8d" d="M 238.5,148.5 C 237.539,150.265 237.205,152.265 237.5,154.5C 237.5,157.5 237.5,160.5 237.5,163.5C 237.5,165.5 237.5,167.5 237.5,169.5C 237.5,175.167 237.5,180.833 237.5,186.5C 249.5,186.5 261.5,186.5 273.5,186.5C 261.345,187.495 249.011,187.829 236.5,187.5C 236.167,174.15 236.501,160.817 237.5,147.5C 238.107,147.624 238.44,147.957 238.5,148.5 Z"/></g>
<g><path style="opacity:1" fill="#ddd4bd" d="M 282.5,135.5 C 283.944,141.942 284.61,148.608 284.5,155.5C 284.499,159.681 284.166,163.681 283.5,167.5C 283.53,156.819 283.196,146.152 282.5,135.5 Z"/></g>
<g><path style="opacity:1" fill="#9e530a" d="M 30.5,151.5 C 35.8333,151.5 41.1667,151.5 46.5,151.5C 50.2142,151.59 53.5475,152.59 56.5,154.5C 60.0542,155.542 63.7208,155.709 67.5,155C 69.9529,156.848 70.9529,159.348 70.5,162.5C 60.985,162.173 51.6517,162.506 42.5,163.5C 38.5,163.5 34.5,163.5 30.5,163.5C 29.1667,159.5 29.1667,155.5 30.5,151.5 Z"/></g>
<g><path style="opacity:1" fill="#957a49" d="M 282.5,101.5 C 295.12,129.379 297.786,158.379 290.5,188.5C 289.883,188.611 289.383,188.944 289,189.5C 288.667,185.5 288.333,181.5 288,177.5C 283.006,185.116 279.673,193.45 278,202.5C 275.937,204.73 274.604,207.397 274,210.5C 273.617,209.944 273.117,209.611 272.5,209.5C 278.403,197.125 282.07,184.125 283.5,170.5C 283.5,169.5 283.5,168.5 283.5,167.5C 284.166,163.681 284.499,159.681 284.5,155.5C 284.61,148.608 283.944,141.942 282.5,135.5C 281.833,131.167 281.167,126.833 280.5,122.5C 279.497,116.151 278.33,109.818 277,103.5C 273.338,98.6615 269.838,93.6615 266.5,88.5C 267.365,87.4173 268.365,87.2506 269.5,88C 270.834,90.0871 272.667,91.5871 275,92.5C 275.483,93.448 275.649,94.448 275.5,95.5C 276.675,95.281 277.675,95.6143 278.5,96.5C 279.133,98.7855 280.466,100.452 282.5,101.5 Z"/></g>
<g><path style="opacity:1" fill="#262b23" d="M 19.5,106.5 C 11.57,127.658 8.9033,149.325 11.5,171.5C 11.366,173.292 11.6993,174.958 12.5,176.5C 12.7038,179.518 13.0371,182.518 13.5,185.5C 12.3509,185.209 11.6842,184.376 11.5,183C 7.02517,160.227 8.02517,137.727 14.5,115.5C 14.4302,114.228 14.0968,113.062 13.5,112C 15.1948,109.713 17.1948,107.879 19.5,106.5 Z"/></g>
<g><path style="opacity:1" fill="#a96916" d="M 71.5,163.5 C 61.8333,163.5 52.1667,163.5 42.5,163.5C 51.6517,162.506 60.985,162.173 70.5,162.5C 70.9529,159.348 69.9529,156.848 67.5,155C 63.7208,155.709 60.0542,155.542 56.5,154.5C 58.5,154.5 60.5,154.5 62.5,154.5C 64.6792,153.941 66.8458,153.274 69,152.5C 69.772,152.645 70.4387,152.978 71,153.5C 71.4983,156.817 71.665,160.15 71.5,163.5 Z"/></g>
<g><path style="opacity:1" fill="#d49535" d="M 30.5,163.5 C 34.5,163.5 38.5,163.5 42.5,163.5C 52.1667,163.5 61.8333,163.5 71.5,163.5C 71.5,165.5 71.5,167.5 71.5,169.5C 58.1667,169.5 44.8333,169.5 31.5,169.5C 31.1667,169.5 30.8333,169.5 30.5,169.5C 30.5,167.5 30.5,165.5 30.5,163.5 Z"/></g>
<g><path style="opacity:1" fill="#f7ecd3" d="M 31.5,135.5 C 30.8379,139.466 30.5045,143.466 30.5,147.5C 30.5,148.833 30.5,150.167 30.5,151.5C 29.1667,155.5 29.1667,159.5 30.5,163.5C 30.5,165.5 30.5,167.5 30.5,169.5C 30.5,171.167 30.5,172.833 30.5,174.5C 29.8186,172.842 28.9853,171.175 28,169.5C 27.0717,158.732 27.7384,148.065 30,137.5C 30.2784,136.584 30.7784,135.918 31.5,135.5 Z"/></g>
<g><path style="opacity:1" fill="#ce8a2b" d="M 237.5,163.5 C 250.167,163.5 262.833,163.5 275.5,163.5C 275.833,163.5 276.167,163.5 276.5,163.5C 276.5,165.5 276.5,167.5 276.5,169.5C 263.833,169.5 251.167,169.5 238.5,169.5C 238.167,169.5 237.833,169.5 237.5,169.5C 237.5,167.5 237.5,165.5 237.5,163.5 Z"/></g>
<g><path style="opacity:1" fill="#923b03" d="M 238.5,169.5 C 251.167,169.5 263.833,169.5 276.5,169.5C 276.324,172.727 275.657,175.727 274.5,178.5C 274.167,178.5 273.833,178.5 273.5,178.5C 263.968,178.346 254.468,177.679 245,176.5C 242.784,176.653 240.617,176.986 238.5,177.5C 238.5,174.833 238.5,172.167 238.5,169.5 Z"/></g>
<g><path style="opacity:1" fill="#885733" d="M 30.5,169.5 C 30.8333,169.5 31.1667,169.5 31.5,169.5C 32.4137,172.728 32.7471,176.061 32.5,179.5C 31.4625,178.07 30.7959,176.403 30.5,174.5C 30.5,172.833 30.5,171.167 30.5,169.5 Z"/></g>
<g><path style="opacity:1" fill="#933f02" d="M 31.5,169.5 C 44.8333,169.5 58.1667,169.5 71.5,169.5C 71.5,173.167 71.5,176.833 71.5,180.5C 71.1667,180.5 70.8333,180.5 70.5,180.5C 70.4959,178.158 69.6625,176.158 68,174.5C 67.6458,176.807 66.6458,177.141 65,175.5C 60.2594,176.039 55.7594,177.373 51.5,179.5C 46.2202,178.382 40.8869,178.216 35.5,179C 34.7476,179.671 34.4142,180.504 34.5,181.5C 33.8333,181.167 33.1667,180.833 32.5,180.5C 32.5,180.167 32.5,179.833 32.5,179.5C 32.7471,176.061 32.4137,172.728 31.5,169.5 Z"/></g>
<g><path style="opacity:1" fill="#dbe7ea" d="M 179.5,159.5 C 179.674,161.861 180.007,164.194 180.5,166.5C 179.325,166.281 178.325,166.614 177.5,167.5C 176.876,169.754 175.543,171.421 173.5,172.5C 173.709,173.086 174.043,173.586 174.5,174C 172.513,175.319 171.346,177.152 171,179.5C 169.887,180.305 168.721,180.972 167.5,181.5C 170.995,173.839 174.995,166.505 179.5,159.5 Z"/></g>
<g><path style="opacity:0.106" fill="#dee0e2" d="M 304.5,165.5 C 304.833,165.5 305.167,165.5 305.5,165.5C 305.493,175.907 303.826,185.907 300.5,195.5C 302.301,185.563 303.634,175.563 304.5,165.5 Z"/></g>
<g><path style="opacity:1" fill="#a24b04" d="M 70.5,180.5 C 70.5,182.167 70.5,183.833 70.5,185.5C 58.5,185.5 46.5,185.5 34.5,185.5C 34.5,184.167 34.5,182.833 34.5,181.5C 34.4142,180.504 34.7476,179.671 35.5,179C 40.8869,178.216 46.2202,178.382 51.5,179.5C 55.7594,177.373 60.2594,176.039 65,175.5C 66.6458,177.141 67.6458,176.807 68,174.5C 69.6625,176.158 70.4959,178.158 70.5,180.5 Z"/></g>
<g><path style="opacity:1" fill="#a24b04" d="M 273.5,178.5 C 273.064,180.746 272.397,182.913 271.5,185C 260.505,185.5 249.505,185.667 238.5,185.5C 238.5,182.833 238.5,180.167 238.5,177.5C 240.617,176.986 242.784,176.653 245,176.5C 254.468,177.679 263.968,178.346 273.5,178.5 Z"/></g>
<g><path style="opacity:0.114" fill="#dbdede" d="M 3.5,180.5 C 4.91301,183.219 5.57968,186.219 5.5,189.5C 4.08699,186.781 3.42032,183.781 3.5,180.5 Z"/></g>
<g><path style="opacity:1" fill="#9c5c23" d="M 32.5,180.5 C 33.1667,180.833 33.8333,181.167 34.5,181.5C 34.5,182.833 34.5,184.167 34.5,185.5C 46.5,185.5 58.5,185.5 70.5,185.5C 70.5,183.833 70.5,182.167 70.5,180.5C 70.8333,180.5 71.1667,180.5 71.5,180.5C 71.5,182.5 71.5,184.5 71.5,186.5C 58.8333,186.5 46.1667,186.5 33.5,186.5C 33.4828,184.435 33.1495,182.435 32.5,180.5 Z"/></g>
<g><path style="opacity:1" fill="#975620" d="M 237.5,169.5 C 237.833,169.5 238.167,169.5 238.5,169.5C 238.5,172.167 238.5,174.833 238.5,177.5C 238.5,180.167 238.5,182.833 238.5,185.5C 249.505,185.667 260.505,185.5 271.5,185C 272.397,182.913 273.064,180.746 273.5,178.5C 273.833,178.5 274.167,178.5 274.5,178.5C 274.425,181.206 274.092,183.873 273.5,186.5C 261.5,186.5 249.5,186.5 237.5,186.5C 237.5,180.833 237.5,175.167 237.5,169.5 Z"/></g>
<g><path style="opacity:1" fill="#f6f9f8" d="M 78.5,243.5 C 78.6633,245.857 78.4966,248.19 78,250.5C 76.4815,250.943 75.3148,250.276 74.5,248.5C 73.5539,248.987 72.5539,249.32 71.5,249.5C 68.1117,246.286 64.445,243.286 60.5,240.5C 59.5713,239.311 59.238,237.978 59.5,236.5C 57.8333,236.5 56.1667,236.5 54.5,236.5C 54.7022,234.011 54.2022,231.677 53,229.5C 48.0638,225.839 45.8971,221.172 46.5,215.5C 44.857,215.52 43.5237,214.853 42.5,213.5C 41.914,213.709 41.414,214.043 41,214.5C 39.837,211.875 38.6703,209.209 37.5,206.5C 36.675,205.614 35.675,205.281 34.5,205.5C 35.6316,201.01 34.6316,196.844 31.5,193C 31.9981,191.842 32.8315,191.009 34,190.5C 45.6559,189.187 57.3226,189.187 69,190.5C 71.2747,190.722 72.4413,189.722 72.5,187.5C 72.5,174.5 72.5,161.5 72.5,148.5C 71.4324,147.566 70.099,147.232 68.5,147.5C 69.252,145.9 70.252,144.4 71.5,143C 72.4491,142.383 73.2825,142.549 74,143.5C 74.6054,141.519 75.6054,141.185 77,142.5C 77.2241,176.179 77.7241,209.846 78.5,243.5 Z"/></g>
<g><path style="opacity:1" fill="#96835f" d="M 22.5,170.5 C 24.5644,176.583 26.0644,182.916 27,189.5C 30.5066,197.845 34.0066,206.178 37.5,214.5C 34.8773,213.046 32.7106,211.046 31,208.5C 29.156,202.126 27.156,195.793 25,189.5C 23.1157,183.331 22.2823,176.998 22.5,170.5 Z"/></g>
<g><path style="opacity:1" fill="#fbf5e5" d="M 274.5,129.5 C 275.15,129.804 275.817,130.137 276.5,130.5C 277.318,133.107 277.818,135.774 278,138.5C 278.167,152.179 278.667,165.846 279.5,179.5C 280.588,176.247 281.921,173.247 283.5,170.5C 282.07,184.125 278.403,197.125 272.5,209.5C 271.833,210.167 271.167,210.833 270.5,211.5C 272.266,204.193 274.6,197.026 277.5,190C 276.584,189.626 275.75,189.126 275,188.5C 262.909,189.654 250.742,189.821 238.5,189C 237.584,188.722 236.918,188.222 236.5,187.5C 249.011,187.829 261.345,187.495 273.5,186.5C 274.092,183.873 274.425,181.206 274.5,178.5C 275.657,175.727 276.324,172.727 276.5,169.5C 276.5,167.5 276.5,165.5 276.5,163.5C 277.791,159.601 277.791,155.601 276.5,151.5C 276.5,150.5 276.5,149.5 276.5,148.5C 276.768,142.051 276.102,135.717 274.5,129.5 Z"/></g>
<g><path style="opacity:1" fill="#222921" d="M 296.5,174.5 C 296.824,178.555 296.491,182.555 295.5,186.5C 293.645,191.694 292.312,197.028 291.5,202.5C 290.5,202.5 289.5,202.5 288.5,202.5C 291.81,193.24 294.477,183.907 296.5,174.5 Z"/></g>
<g><path style="opacity:1" fill="#9b7e4b" d="M 22.5,146.5 C 22.5,154.5 22.5,162.5 22.5,170.5C 22.2823,176.998 23.1157,183.331 25,189.5C 27.156,195.793 29.156,202.126 31,208.5C 32.7106,211.046 34.8773,213.046 37.5,214.5C 38.1667,214.5 38.5,214.833 38.5,215.5C 37.8761,215.917 37.5427,216.584 37.5,217.5C 38.6123,219.39 39.4456,221.39 40,223.5C 44.273,225.445 46.6063,228.778 47,233.5C 49.7194,236.43 52.5527,239.264 55.5,242C 53.8409,243.841 51.8409,245.008 49.5,245.5C 42.8138,238.307 36.6471,230.641 31,222.5C 28.6626,218.141 26.3292,213.808 24,209.5C 22.9279,204.868 21.9279,200.201 21,195.5C 19.9882,193.136 18.6549,191.802 17,191.5C 15.6842,186.903 14.6842,182.236 14,177.5C 13.6174,176.944 13.1174,176.611 12.5,176.5C 11.6993,174.958 11.366,173.292 11.5,171.5C 11.3336,162.494 11.5002,153.494 12,144.5C 14.3236,134.889 16.3236,125.223 18,115.5C 21.0542,111.769 22.5542,107.435 22.5,102.5C 22.5,102.167 22.5,101.833 22.5,101.5C 27.0361,99.7852 29.5361,96.4518 30,91.5C 31.8593,88.4721 33.8593,85.4721 36,82.5C 39.9543,85.145 40.4543,88.3117 37.5,92C 37.8333,92.3333 38.1667,92.6667 38.5,93C 37.2161,93.6838 36.0495,93.5171 35,92.5C 31.9403,95.7104 31.107,99.5438 32.5,104C 30.7323,107.151 28.899,110.318 27,113.5C 27.0385,119.563 25.7052,125.23 23,130.5C 22.5006,135.823 22.334,141.156 22.5,146.5 Z"/></g>
<g><path style="opacity:1" fill="#96a9ae" d="M 72.5,193.5 C 60.1201,192.854 48.1201,193.521 36.5,195.5C 35.596,194.791 35.2627,193.791 35.5,192.5C 48.0113,192.171 60.3446,192.505 72.5,193.5 Z"/></g>
<g><path style="opacity:1" fill="#dce7e9" d="M 140.5,179.5 C 145.512,186.185 149.512,193.518 152.5,201.5C 148.883,199.958 146.716,197.292 146,193.5C 141.741,189.809 139.908,185.142 140.5,179.5 Z"/></g>
<g><path style="opacity:1" fill="#98a6a9" d="M 121.5,182.5 C 120.503,200.326 120.17,218.326 120.5,236.5C 119.173,218.329 119.173,199.996 120.5,181.5C 121.107,181.624 121.44,181.957 121.5,182.5 Z"/></g>
<g><path style="opacity:1" fill="#9a824a" d="M 290.5,188.5 C 290.662,190.527 290.495,192.527 290,194.5C 287.479,199.563 285.645,204.896 284.5,210.5C 284.5,210.833 284.5,211.167 284.5,211.5C 281.202,212.964 278.702,215.297 277,218.5C 272.236,229.742 265.403,239.409 256.5,247.5C 255.808,246.975 255.308,246.308 255,245.5C 254.5,246.667 253.667,247.5 252.5,248C 253.38,249.356 253.714,250.856 253.5,252.5C 252.07,252.421 250.736,252.754 249.5,253.5C 245.578,256.915 241.245,259.748 236.5,262C 228.028,270.457 218.028,276.457 206.5,280C 205.619,280.708 204.953,281.542 204.5,282.5C 196.565,282.721 188.898,284.055 181.5,286.5C 176.845,285.602 172.178,284.769 167.5,284C 173.97,281.779 180.637,280.112 187.5,279C 190.648,277.576 193.648,276.076 196.5,274.5C 203.41,271.383 210.41,268.216 217.5,265C 224.09,261.55 230.09,257.384 235.5,252.5C 237.404,252.262 238.738,251.262 239.5,249.5C 252.764,239.235 263.097,226.568 270.5,211.5C 271.167,210.833 271.833,210.167 272.5,209.5C 273.117,209.611 273.617,209.944 274,210.5C 274.604,207.397 275.937,204.73 278,202.5C 279.673,193.45 283.006,185.116 288,177.5C 288.333,181.5 288.667,185.5 289,189.5C 289.383,188.944 289.883,188.611 290.5,188.5 Z"/></g>
<g><path style="opacity:1" fill="#0e2a33" d="M 187.5,185.5 C 188.497,202.659 188.83,219.992 188.5,237.5C 187.4,238.605 186.733,239.938 186.5,241.5C 185.167,242.5 183.833,243.5 182.5,244.5C 181.833,244.5 181.5,244.833 181.5,245.5C 180.883,245.611 180.383,245.944 180,246.5C 179.481,245.484 178.647,244.818 177.5,244.5C 175.462,245.634 173.462,245.634 171.5,244.5C 168.933,242.072 165.933,240.405 162.5,239.5C 161.691,237.929 161.357,236.262 161.5,234.5C 169.406,217.684 178.073,201.35 187.5,185.5 Z"/></g>
<g><path style="opacity:1" fill="#917e58" d="M 12.5,176.5 C 13.1174,176.611 13.6174,176.944 14,177.5C 14.6842,182.236 15.6842,186.903 17,191.5C 18.6549,191.802 19.9882,193.136 21,195.5C 21.9279,200.201 22.9279,204.868 24,209.5C 26.3292,213.808 28.6626,218.141 31,222.5C 36.6471,230.641 42.8138,238.307 49.5,245.5C 50.1098,246.391 50.4431,247.391 50.5,248.5C 32.2584,231.023 19.925,210.023 13.5,185.5C 13.0371,182.518 12.7038,179.518 12.5,176.5 Z"/></g>
<g><path style="opacity:0.012" fill="#d6d9da" d="M 300.5,195.5 C 297.575,208.344 292.242,220.011 284.5,230.5C 290.676,219.153 296.009,207.486 300.5,195.5 Z"/></g>
<g><path style="opacity:1" fill="#f5f8f6" d="M 168.5,64.5 C 169.5,65.1667 170.5,65.8333 171.5,66.5C 174.313,70.4673 177.979,73.6339 182.5,76C 184.742,79.9015 187.576,80.4015 191,77.5C 191.497,74.854 191.664,72.1873 191.5,69.5C 203.167,69.5 214.833,69.5 226.5,69.5C 226.167,83.5159 226.501,97.5159 227.5,111.5C 229.063,112.945 230.396,114.611 231.5,116.5C 235.04,118.431 238.374,120.598 241.5,123C 243.106,126.305 245.773,127.805 249.5,127.5C 250.605,128.6 251.938,129.267 253.5,129.5C 255.808,131.471 258.142,133.471 260.5,135.5C 263.5,139.167 266.833,142.5 270.5,145.5C 270.5,146.5 270.5,147.5 270.5,148.5C 264.838,148.969 259.171,149.469 253.5,150C 249.18,153.764 245.847,153.264 243.5,148.5C 241.833,148.5 240.167,148.5 238.5,148.5C 238.44,147.957 238.107,147.624 237.5,147.5C 236.501,160.817 236.167,174.15 236.5,187.5C 236.918,188.222 237.584,188.722 238.5,189C 250.742,189.821 262.909,189.654 275,188.5C 275.75,189.126 276.584,189.626 277.5,190C 274.6,197.026 272.266,204.193 270.5,211.5C 269.761,211.369 269.094,211.536 268.5,212C 266.913,214.406 265.247,216.572 263.5,218.5C 262.957,218.44 262.624,218.107 262.5,217.5C 264.071,215.118 264.904,212.451 265,209.5C 265.667,208.167 266.333,208.167 267,209.5C 268.68,205.295 269.847,200.962 270.5,196.5C 270.5,196.167 270.5,195.833 270.5,195.5C 271.404,194.791 271.737,193.791 271.5,192.5C 259.655,192.172 247.988,192.505 236.5,193.5C 236.167,210.18 236.501,226.847 237.5,243.5C 238.107,243.376 238.44,243.043 238.5,242.5C 240.833,239.5 243.5,236.833 246.5,234.5C 246.127,237.574 245.461,240.574 244.5,243.5C 243.5,243.5 242.5,243.5 241.5,243.5C 240.833,245.5 240.167,247.5 239.5,249.5C 238.738,251.262 237.404,252.262 235.5,252.5C 229.074,255.597 222.407,258.43 215.5,261C 213.527,261.495 211.527,261.662 209.5,261.5C 215.337,258.082 221.004,254.416 226.5,250.5C 227.391,249.89 228.391,249.557 229.5,249.5C 230.498,213.671 230.832,177.671 230.5,141.5C 232.144,141.714 233.644,141.38 235,140.5C 235.533,142.939 236.7,143.605 238.5,142.5C 241.464,144.448 244.464,146.448 247.5,148.5C 251.835,147.155 256.168,145.989 260.5,145C 247.312,134.636 234.312,124.136 221.5,113.5C 221.829,100.656 221.495,87.989 220.5,75.5C 212.684,74.5076 204.684,74.1743 196.5,74.5C 196.194,77.3854 196.527,80.0521 197.5,82.5C 197.833,82.5 198.167,82.5 198.5,82.5C 198.824,86.5546 198.491,90.5546 197.5,94.5C 183.473,84.4844 169.806,73.9844 156.5,63C 154.833,62.3333 153.167,62.3333 151.5,63C 117.167,90.1667 82.8333,117.333 48.5,144.5C 52.5664,146.583 56.8997,147.917 61.5,148.5C 62.7978,147.884 63.7978,147.884 64.5,148.5C 63.6829,150.478 62.1829,151.478 60,151.5C 52.9886,149.591 45.8219,148.591 38.5,148.5C 38.33,147.178 38.6634,146.011 39.5,145C 43.0599,142.597 46.7266,140.43 50.5,138.5C 53.3427,135.292 56.0094,131.959 58.5,128.5C 58.5,128.167 58.5,127.833 58.5,127.5C 61.4495,125.885 64.1162,123.885 66.5,121.5C 68.1667,120.5 69.5,119.167 70.5,117.5C 72.0269,117.573 73.0269,116.906 73.5,115.5C 74.922,114.075 76.5887,113.075 78.5,112.5C 80.9237,111.97 83.257,111.136 85.5,110C 87.6677,107.002 90.0011,104.169 92.5,101.5C 96.4527,101.346 100.119,100.346 103.5,98.5C 103.662,95.3314 105.328,93.3314 108.5,92.5C 109.386,91.675 109.719,90.675 109.5,89.5C 110.873,89.6567 112.207,89.49 113.5,89C 114.891,87.3499 116.391,86.8499 118,87.5C 118.273,85.8988 118.773,84.3988 119.5,83C 123.97,81.9153 127.637,80.2486 130.5,78C 130.167,77.6667 129.833,77.3333 129.5,77C 130.448,76.5172 131.448,76.3505 132.5,76.5C 133.783,73.9896 134.783,71.3229 135.5,68.5C 138.247,68.8134 140.914,68.48 143.5,67.5C 143.291,66.914 142.957,66.414 142.5,66C 143.72,64.3697 145.72,63.3697 148.5,63C 149.337,61.9887 149.67,60.8221 149.5,59.5C 154.339,55.247 157.672,56.247 159.5,62.5C 162.598,62.7556 165.598,63.4222 168.5,64.5 Z"/></g>
<g><path style="opacity:1" fill="#06293c" d="M 269.5,196.5 C 269.598,198.553 268.931,200.22 267.5,201.5C 265.728,203.296 263.728,204.963 261.5,206.5C 260.833,205.167 260.167,203.833 259.5,202.5C 258.051,203.617 256.384,204.284 254.5,204.5C 250.49,203.296 246.49,203.296 242.5,204.5C 241.5,204.333 240.5,204.167 239.5,204C 243.723,201.756 243.389,200.59 238.5,200.5C 238.5,198.833 238.5,197.167 238.5,195.5C 248.885,195.214 259.218,195.548 269.5,196.5 Z"/></g>
<g><path style="opacity:1" fill="#a7b8b9" d="M 236.5,193.5 C 247.988,192.505 259.655,192.172 271.5,192.5C 271.737,193.791 271.404,194.791 270.5,195.5C 259.884,193.523 248.884,192.856 237.5,193.5C 237.167,193.5 236.833,193.5 236.5,193.5 Z"/></g>
<g><path style="opacity:1" fill="#354850" d="M 219.5,145.5 C 207.655,145.172 195.988,145.505 184.5,146.5C 183.957,146.44 183.624,146.107 183.5,145.5C 195.66,144.175 207.66,144.175 219.5,145.5 Z"/></g>
<g><path style="opacity:1" fill="#2e464b" d="M 124.5,145.5 C 112.988,145.172 101.654,145.505 90.5,146.5C 89.9569,146.44 89.6236,146.107 89.5,145.5C 101.327,144.176 112.993,144.176 124.5,145.5 Z"/></g>
<g><path style="opacity:1" fill="#85949a" d="M 152.5,122.5 C 153.482,125.962 153.815,129.629 153.5,133.5C 149.958,133.813 146.625,133.479 143.5,132.5C 146.5,132.5 149.5,132.5 152.5,132.5C 152.5,129.167 152.5,125.833 152.5,122.5 Z"/></g>
<g><path style="opacity:1" fill="#132c35" d="M 198.5,82.5 C 198.957,86.8814 199.957,91.2147 201.5,95.5C 200.499,97.9362 199.332,97.9362 198,95.5C 196.238,95.9444 196.405,96.4444 198.5,97C 193.073,100.144 193.407,102.644 199.5,104.5C 200.167,103.5 200.833,102.5 201.5,101.5C 203.531,102.539 204.864,104.205 205.5,106.5C 206.086,106.291 206.586,105.957 207,105.5C 207.743,107.441 207.576,109.274 206.5,111C 209.532,112.578 212.032,114.745 214,117.5C 214.195,118.819 214.028,120.153 213.5,121.5C 194.1,105.934 174.266,90.9339 154,76.5C 122.705,99.9677 91.8721,123.968 61.5,148.5C 56.8997,147.917 52.5664,146.583 48.5,144.5C 82.8333,117.333 117.167,90.1667 151.5,63C 153.167,62.3333 154.833,62.3333 156.5,63C 169.806,73.9844 183.473,84.4844 197.5,94.5C 198.491,90.5546 198.824,86.5546 198.5,82.5 Z"/></g>
<g><path style="opacity:1" fill="#6e7f85" d="M 157.5,122.5 C 160.287,121.523 163.287,121.19 166.5,121.5C 167.483,125.298 167.817,129.298 167.5,133.5C 163.958,133.813 160.625,133.479 157.5,132.5C 160.5,132.5 163.5,132.5 166.5,132.5C 166.5,129.167 166.5,125.833 166.5,122.5C 163.5,122.5 160.5,122.5 157.5,122.5 Z"/></g>
<g><path style="opacity:1" fill="#f4fafb" d="M 157.5,122.5 C 160.5,122.5 163.5,122.5 166.5,122.5C 166.5,125.833 166.5,129.167 166.5,132.5C 163.5,132.5 160.5,132.5 157.5,132.5C 157.5,129.167 157.5,125.833 157.5,122.5 Z"/></g>
<g><path style="opacity:1" fill="#f5fcfc" d="M 152.5,122.5 C 152.5,125.833 152.5,129.167 152.5,132.5C 149.5,132.5 146.5,132.5 143.5,132.5C 143.5,129.167 143.5,125.833 143.5,122.5C 146.5,122.5 149.5,122.5 152.5,122.5 Z"/></g>
<g><path style="opacity:1" fill="#06121b" d="M 157.5,117.5 C 160.287,118.477 163.287,118.81 166.5,118.5C 166.5,119.5 166.5,120.5 166.5,121.5C 163.287,121.19 160.287,121.523 157.5,122.5C 156.518,125.962 156.185,129.629 156.5,133.5C 155.5,133.5 154.5,133.5 153.5,133.5C 153.815,129.629 153.482,125.962 152.5,122.5C 149.375,121.521 146.042,121.187 142.5,121.5C 142.5,120.5 142.5,119.5 142.5,118.5C 146.042,118.813 149.375,118.479 152.5,117.5C 153.485,113.366 153.818,109.032 153.5,104.5C 154.5,104.5 155.5,104.5 156.5,104.5C 156.182,109.032 156.515,113.366 157.5,117.5 Z"/></g>
<g><path style="opacity:1" fill="#e6efef" d="M 157.5,117.5 C 157.5,113.833 157.5,110.167 157.5,106.5C 160.833,106.5 164.167,106.5 167.5,106.5C 167.5,110.167 167.5,113.833 167.5,117.5C 164.167,117.5 160.833,117.5 157.5,117.5 Z"/></g>
<g><path style="opacity:1" fill="#f0f8fa" d="M 152.5,117.5 C 149.5,117.5 146.5,117.5 143.5,117.5C 143.5,113.833 143.5,110.167 143.5,106.5C 146.5,106.5 149.5,106.5 152.5,106.5C 152.5,110.167 152.5,113.833 152.5,117.5 Z"/></g>
<g><path style="opacity:1" fill="#0c2733" d="M 197.5,76.5 C 205.167,76.5 212.833,76.5 220.5,76.5C 220.171,89.0113 220.505,101.345 221.5,113.5C 234.312,124.136 247.312,134.636 260.5,145C 256.168,145.989 251.835,147.155 247.5,148.5C 244.464,146.448 241.464,144.448 238.5,142.5C 230.459,135.124 222.126,128.124 213.5,121.5C 214.028,120.153 214.195,118.819 214,117.5C 212.032,114.745 209.532,112.578 206.5,111C 207.576,109.274 207.743,107.441 207,105.5C 206.586,105.957 206.086,106.291 205.5,106.5C 204.864,104.205 203.531,102.539 201.5,101.5C 200.833,102.5 200.167,103.5 199.5,104.5C 193.407,102.644 193.073,100.144 198.5,97C 196.405,96.4444 196.238,95.9444 198,95.5C 199.332,97.9362 200.499,97.9362 201.5,95.5C 199.957,91.2147 198.957,86.8814 198.5,82.5C 198.167,82.5 197.833,82.5 197.5,82.5C 197.5,80.5 197.5,78.5 197.5,76.5 Z"/></g>
<g><path style="opacity:1" fill="#66767d" d="M 197.5,76.5 C 204.982,75.508 212.648,75.1746 220.5,75.5C 221.495,87.989 221.829,100.656 221.5,113.5C 220.505,101.345 220.171,89.0113 220.5,76.5C 212.833,76.5 205.167,76.5 197.5,76.5 Z"/></g>
<g><path style="opacity:1" fill="#d0dcdd" d="M 220.5,75.5 C 212.648,75.1746 204.982,75.508 197.5,76.5C 197.5,78.5 197.5,80.5 197.5,82.5C 196.527,80.0521 196.194,77.3854 196.5,74.5C 204.684,74.1743 212.684,74.5076 220.5,75.5 Z"/></g>
<g><path style="opacity:1" fill="#d4e2e4" d="M 188.5,181.5 C 188.56,180.957 188.893,180.624 189.5,180.5C 190.833,200.167 190.833,219.833 189.5,239.5C 188.482,240.193 187.482,240.859 186.5,241.5C 186.733,239.938 187.4,238.605 188.5,237.5C 189.833,218.833 189.833,200.167 188.5,181.5 Z"/></g>
<g><path style="opacity:0.192" fill="#d5d8d9" d="M 5.5,189.5 C 8.94533,199.158 12.612,208.825 16.5,218.5C 10.9279,209.666 7.26126,200 5.5,189.5 Z"/></g>
<g><path style="opacity:1" fill="#0f303e" d="M 72.5,193.5 C 72.9709,210.262 72.4709,226.928 71,243.5C 61.4772,235.158 53.3106,225.824 46.5,215.5C 43.1799,208.86 39.8466,202.193 36.5,195.5C 48.1201,193.521 60.1201,192.854 72.5,193.5 Z"/></g>
<g><path style="opacity:1" fill="#092a3b" d="M 260.5,214.5 C 259.89,216.434 258.89,218.101 257.5,219.5C 255.248,220.333 253.081,220.333 251,219.5C 249.771,221.947 248.271,222.113 246.5,220C 247.167,219.667 247.833,219.333 248.5,219C 244.248,217.586 241.748,219.086 241,223.5C 239.958,218.431 239.458,213.597 239.5,209C 245.833,208.333 252.167,208.333 258.5,209C 260.192,210.401 260.859,212.234 260.5,214.5 Z"/></g>
<g><path style="opacity:1" fill="#516971" d="M 236.5,193.5 C 236.833,193.5 237.167,193.5 237.5,193.5C 237.17,210.009 237.504,226.342 238.5,242.5C 238.44,243.043 238.107,243.376 237.5,243.5C 236.501,226.847 236.167,210.18 236.5,193.5 Z"/></g>
<g><path style="opacity:1" fill="#34464a" d="M 188.5,181.5 C 189.833,200.167 189.833,218.833 188.5,237.5C 188.83,219.992 188.497,202.659 187.5,185.5C 187.833,184.167 188.167,182.833 188.5,181.5 Z"/></g>
<g><path style="opacity:0.999" fill="#1a2b32" d="M 286.5,86.5 C 288.748,89.328 290.748,92.328 292.5,95.5C 294.989,102.973 297.656,110.306 300.5,117.5C 301.434,118.568 301.768,119.901 301.5,121.5C 302.593,129.153 303.593,136.82 304.5,144.5C 304.5,151.5 304.5,158.5 304.5,165.5C 303.634,175.563 302.301,185.563 300.5,195.5C 296.009,207.486 290.676,219.153 284.5,230.5C 281.395,233.275 279.062,236.608 277.5,240.5C 275.413,241.585 274.08,243.251 273.5,245.5C 270.097,247.9 267.43,250.9 265.5,254.5C 265.167,255.5 264.5,256.167 263.5,256.5C 259.9,258.43 256.9,261.097 254.5,264.5C 241.153,273.844 227.153,282.177 212.5,289.5C 211.791,290.404 210.791,290.737 209.5,290.5C 208.5,290.5 207.5,290.5 206.5,290.5C 207.335,289.057 208.668,288.057 210.5,287.5C 209.897,286.365 209.564,285.365 209.5,284.5C 204.627,286.042 199.627,286.708 194.5,286.5C 197.95,285.47 201.283,284.137 204.5,282.5C 209.911,280.697 215.244,278.697 220.5,276.5C 224.212,275.972 227.879,275.138 231.5,274C 232.337,272.989 232.67,271.822 232.5,270.5C 234.5,270.167 236.5,269.833 238.5,269.5C 239.015,265.547 241.348,263.381 245.5,263C 247.913,260.667 250.246,258.333 252.5,256C 253.872,255.598 255.205,255.098 256.5,254.5C 261.761,247.068 267.594,240.068 274,233.5C 274.49,232.207 274.657,230.873 274.5,229.5C 275.721,228.972 276.887,228.305 278,227.5C 283.158,219.852 286.658,211.518 288.5,202.5C 289.5,202.5 290.5,202.5 291.5,202.5C 292.312,197.028 293.645,191.694 295.5,186.5C 296.491,182.555 296.824,178.555 296.5,174.5C 297.29,173.391 297.79,172.058 298,170.5C 298.5,160.839 298.666,151.172 298.5,141.5C 299.826,138.318 300.326,134.985 300,131.5C 299,132.833 298,132.833 297,131.5C 296.333,125.5 295.667,119.5 295,113.5C 294.057,110.387 292.557,108.387 290.5,107.5C 291.04,106.252 291.707,105.085 292.5,104C 289.194,101.772 287.694,98.6055 288,94.5C 287.667,94.8333 287.333,95.1667 287,95.5C 285.548,94.0929 285.715,92.5929 287.5,91C 286.262,91.0773 285.262,90.9106 284.5,90.5C 285.63,89.3777 286.297,88.0443 286.5,86.5 Z"/></g>
<g><path style="opacity:1" fill="#0b2d39" d="M 237.5,193.5 C 248.884,192.856 259.884,193.523 270.5,195.5C 270.5,195.833 270.5,196.167 270.5,196.5C 270.167,196.5 269.833,196.5 269.5,196.5C 259.218,195.548 248.885,195.214 238.5,195.5C 238.5,197.167 238.5,198.833 238.5,200.5C 243.389,200.59 243.723,201.756 239.5,204C 240.5,204.167 241.5,204.333 242.5,204.5C 246.49,203.296 250.49,203.296 254.5,204.5C 256.384,204.284 258.051,203.617 259.5,202.5C 260.167,203.833 260.833,205.167 261.5,206.5C 263.728,204.963 265.728,203.296 267.5,201.5C 265.561,206.09 263.227,210.423 260.5,214.5C 260.859,212.234 260.192,210.401 258.5,209C 252.167,208.333 245.833,208.333 239.5,209C 239.458,213.597 239.958,218.431 241,223.5C 241.748,219.086 244.248,217.586 248.5,219C 247.833,219.333 247.167,219.667 246.5,220C 248.271,222.113 249.771,221.947 251,219.5C 253.081,220.333 255.248,220.333 257.5,219.5C 254.22,224.781 250.553,229.781 246.5,234.5C 243.5,236.833 240.833,239.5 238.5,242.5C 237.504,226.342 237.17,210.009 237.5,193.5 Z"/></g>
<g><path style="opacity:1" fill="#262c23" d="M 288.5,202.5 C 286.658,211.518 283.158,219.852 278,227.5C 276.887,228.305 275.721,228.972 274.5,229.5C 277.821,223.527 281.155,217.527 284.5,211.5C 284.5,211.167 284.5,210.833 284.5,210.5C 286.025,207.921 287.359,205.254 288.5,202.5 Z"/></g>
<g><path style="opacity:1" fill="#e1efef" d="M 269.5,196.5 C 269.833,196.5 270.167,196.5 270.5,196.5C 269.847,200.962 268.68,205.295 267,209.5C 266.333,208.167 265.667,208.167 265,209.5C 264.904,212.451 264.071,215.118 262.5,217.5C 262.624,218.107 262.957,218.44 263.5,218.5C 263.5,219.833 263.5,221.167 263.5,222.5C 262.178,222.67 261.011,222.337 260,221.5C 256.492,225.32 253.326,229.487 250.5,234C 249.207,234.49 247.873,234.657 246.5,234.5C 250.553,229.781 254.22,224.781 257.5,219.5C 258.89,218.101 259.89,216.434 260.5,214.5C 263.227,210.423 265.561,206.09 267.5,201.5C 268.931,200.22 269.598,198.553 269.5,196.5 Z"/></g>
<g><path style="opacity:1" fill="#f8f7e9" d="M 270.5,211.5 C 263.097,226.568 252.764,239.235 239.5,249.5C 240.167,247.5 240.833,245.5 241.5,243.5C 242.5,243.5 243.5,243.5 244.5,243.5C 245.461,240.574 246.127,237.574 246.5,234.5C 247.873,234.657 249.207,234.49 250.5,234C 253.326,229.487 256.492,225.32 260,221.5C 261.011,222.337 262.178,222.67 263.5,222.5C 263.5,221.167 263.5,219.833 263.5,218.5C 265.247,216.572 266.913,214.406 268.5,212C 269.094,211.536 269.761,211.369 270.5,211.5 Z"/></g>
<g><path style="opacity:0.106" fill="#d7d9da" d="M 16.5,218.5 C 20.3308,223.489 23.6641,228.822 26.5,234.5C 22.1688,229.848 18.8355,224.514 16.5,218.5 Z"/></g>
<g><path style="opacity:1" fill="#0e2a32" d="M 121.5,182.5 C 126.789,194.044 132.456,205.377 138.5,216.5C 138.286,218.144 138.62,219.644 139.5,221C 138.285,223.096 137.451,222.929 137,220.5C 135.573,222.705 135.073,224.872 135.5,227C 136.759,227.923 138.092,228.757 139.5,229.5C 138.54,230.812 138.706,232.146 140,233.5C 140.667,234.833 141.333,234.833 142,233.5C 142.288,236.743 142.288,240.076 142,243.5C 143.587,244.727 144.921,244.394 146,242.5C 148.468,245.252 147.801,246.585 144,246.5C 141.966,246.646 140.299,245.98 139,244.5C 136.436,246.077 133.603,247.077 130.5,247.5C 129.818,246.757 129.151,246.091 128.5,245.5C 127.833,245.167 127.167,244.833 126.5,244.5C 123.539,242.588 121.539,239.921 120.5,236.5C 120.17,218.326 120.503,200.326 121.5,182.5 Z"/></g>
<g><path style="opacity:0.031" fill="#dadbdc" d="M 284.5,230.5 C 282.938,234.392 280.605,237.725 277.5,240.5C 279.062,236.608 281.395,233.275 284.5,230.5 Z"/></g>
<g><path style="opacity:0.071" fill="#cfd2d3" d="M 26.5,234.5 C 28.2624,235.262 29.2624,236.596 29.5,238.5C 27.7376,237.738 26.7376,236.404 26.5,234.5 Z"/></g>
<g><path style="opacity:1" fill="#8b8159" d="M 284.5,211.5 C 281.155,217.527 277.821,223.527 274.5,229.5C 268.55,238.117 261.55,245.784 253.5,252.5C 253.714,250.856 253.38,249.356 252.5,248C 253.667,247.5 254.5,246.667 255,245.5C 255.308,246.308 255.808,246.975 256.5,247.5C 265.403,239.409 272.236,229.742 277,218.5C 278.702,215.297 281.202,212.964 284.5,211.5 Z"/></g>
<g><path style="opacity:0.122" fill="#d2d4d6" d="M 29.5,238.5 C 31.2624,239.262 32.2624,240.596 32.5,242.5C 30.7376,241.738 29.7376,240.404 29.5,238.5 Z"/></g>
<g><path style="opacity:1" fill="#0d2d37" d="M 138.5,216.5 C 143.806,225.771 149.14,235.104 154.5,244.5C 156.888,241.128 159.221,237.794 161.5,234.5C 161.357,236.262 161.691,237.929 162.5,239.5C 165.933,240.405 168.933,242.072 171.5,244.5C 173.462,245.634 175.462,245.634 177.5,244.5C 178.647,244.818 179.481,245.484 180,246.5C 180.383,245.944 180.883,245.611 181.5,245.5C 182.209,246.404 183.209,246.737 184.5,246.5C 184.369,247.239 184.536,247.906 185,248.5C 190.741,247.525 196.575,247.192 202.5,247.5C 201.895,249.026 200.729,250.026 199,250.5C 198.373,252.586 198.873,252.919 200.5,251.5C 203.177,252.074 205.843,252.741 208.5,253.5C 205.935,256.512 203.268,258.678 200.5,260C 198.559,260.743 196.726,260.576 195,259.5C 194.082,261.632 192.749,262.299 191,261.5C 189.082,264.336 186.415,266.003 183,266.5C 174.839,263.901 166.672,263.901 158.5,266.5C 158.762,267.978 158.429,269.311 157.5,270.5C 155.899,269.835 154.399,269.501 153,269.5C 152.517,270.448 152.351,271.448 152.5,272.5C 150.5,272.5 148.5,272.5 146.5,272.5C 141.848,272.002 137.181,271.669 132.5,271.5C 120.707,269.718 109.373,266.385 98.5,261.5C 94.1559,259.329 90.1559,256.663 86.5,253.5C 88.7729,252.265 90.6062,252.598 92,254.5C 94.2415,252.004 96.2415,252.337 98,255.5C 98.1667,255 98.3333,254.5 98.5,254C 96.5871,251.413 94.5871,248.913 92.5,246.5C 104.678,246.828 116.678,246.495 128.5,245.5C 129.151,246.091 129.818,246.757 130.5,247.5C 133.603,247.077 136.436,246.077 139,244.5C 140.299,245.98 141.966,246.646 144,246.5C 147.801,246.585 148.468,245.252 146,242.5C 144.921,244.394 143.587,244.727 142,243.5C 142.288,240.076 142.288,236.743 142,233.5C 141.333,234.833 140.667,234.833 140,233.5C 138.706,232.146 138.54,230.812 139.5,229.5C 138.092,228.757 136.759,227.923 135.5,227C 135.073,224.872 135.573,222.705 137,220.5C 137.451,222.929 138.285,223.096 139.5,221C 138.62,219.644 138.286,218.144 138.5,216.5 Z"/></g>
<g><path style="opacity:0.008" fill="#cfd1d3" d="M 32.5,242.5 C 35.2427,244.239 37.2427,246.573 38.5,249.5C 35.7573,247.761 33.7573,245.427 32.5,242.5 Z"/></g>
<g><path style="opacity:0.122" fill="#c9cccf" d="M 277.5,240.5 C 276.92,242.749 275.587,244.415 273.5,245.5C 274.08,243.251 275.413,241.585 277.5,240.5 Z"/></g>
<g><path style="opacity:1" fill="#a0b0b5" d="M 92.5,244.5 C 103.833,245.833 115.167,245.833 126.5,244.5C 127.167,244.833 127.833,245.167 128.5,245.5C 116.678,246.495 104.678,246.828 92.5,246.5C 90.0673,246.214 90.0673,245.548 92.5,244.5 Z"/></g>
<g><path style="opacity:1" fill="#86979c" d="M 182.5,244.5 C 194.167,245.833 205.833,245.833 217.5,244.5C 218.043,244.56 218.376,244.893 218.5,245.5C 207.186,246.499 195.853,246.832 184.5,246.5C 183.209,246.737 182.209,246.404 181.5,245.5C 181.5,244.833 181.833,244.5 182.5,244.5 Z"/></g>
<g><path style="opacity:0.643" fill="#a3a7ab" d="M 38.5,249.5 C 40.8333,249.833 42.1667,251.167 42.5,253.5C 40.8333,252.5 39.5,251.167 38.5,249.5 Z"/></g>
<g><path style="opacity:1" fill="#7f7758" d="M 50.5,248.5 C 51.9217,248.709 53.255,249.209 54.5,250C 57.7044,253.036 60.7044,256.203 63.5,259.5C 58.6012,256.544 54.2678,252.877 50.5,248.5 Z"/></g>
<g><path style="opacity:0.106" fill="#ced0d2" d="M 273.5,245.5 C 271.57,249.1 268.903,252.1 265.5,254.5C 267.43,250.9 270.097,247.9 273.5,245.5 Z"/></g>
<g><path style="opacity:0.667" fill="#b1b6b9" d="M 42.5,253.5 C 46.7706,256.101 50.4372,259.434 53.5,263.5C 49.2294,260.899 45.5628,257.566 42.5,253.5 Z"/></g>
<g><path style="opacity:1" fill="#232a23" d="M 274.5,229.5 C 274.657,230.873 274.49,232.207 274,233.5C 267.594,240.068 261.761,247.068 256.5,254.5C 255.205,255.098 253.872,255.598 252.5,256C 250.246,258.333 247.913,260.667 245.5,263C 241.348,263.381 239.015,265.547 238.5,269.5C 236.5,269.833 234.5,270.167 232.5,270.5C 232.67,271.822 232.337,272.989 231.5,274C 227.879,275.138 224.212,275.972 220.5,276.5C 232.62,270.047 243.62,262.047 253.5,252.5C 261.55,245.784 268.55,238.117 274.5,229.5 Z"/></g>
<g><path style="opacity:1" fill="#102e3c" d="M 202.5,247.5 C 205.5,247.5 208.5,247.5 211.5,247.5C 211.976,250.258 213.643,251.925 216.5,252.5C 219.654,250.974 222.987,250.307 226.5,250.5C 221.004,254.416 215.337,258.082 209.5,261.5C 208.833,261.5 208.5,261.833 208.5,262.5C 200.629,265.261 192.629,267.761 184.5,270C 171.927,272.23 159.26,273.397 146.5,273.5C 146.5,273.167 146.5,272.833 146.5,272.5C 148.5,272.5 150.5,272.5 152.5,272.5C 152.351,271.448 152.517,270.448 153,269.5C 154.399,269.501 155.899,269.835 157.5,270.5C 158.429,269.311 158.762,267.978 158.5,266.5C 166.672,263.901 174.839,263.901 183,266.5C 186.415,266.003 189.082,264.336 191,261.5C 192.749,262.299 194.082,261.632 195,259.5C 196.726,260.576 198.559,260.743 200.5,260C 203.268,258.678 205.935,256.512 208.5,253.5C 205.843,252.741 203.177,252.074 200.5,251.5C 198.873,252.919 198.373,252.586 199,250.5C 200.729,250.026 201.895,249.026 202.5,247.5 Z"/></g>
<g><path style="opacity:0.094" fill="#d5d8d9" d="M 263.5,256.5 C 261.1,259.903 258.1,262.57 254.5,264.5C 256.9,261.097 259.9,258.43 263.5,256.5 Z"/></g>
<g><path style="opacity:0.412" fill="#c4c8ca" d="M 53.5,263.5 C 56.0892,264.419 58.0892,266.086 59.5,268.5C 56.9108,267.581 54.9108,265.914 53.5,263.5 Z"/></g>
<g><path style="opacity:0.169" fill="#d4d7d9" d="M 59.5,268.5 C 61.0618,268.733 62.3951,269.4 63.5,270.5C 63.8333,271.167 64.1667,271.833 64.5,272.5C 62.2512,271.92 60.5846,270.587 59.5,268.5 Z"/></g>
<g><path style="opacity:1" fill="#9d8551" d="M 38.5,215.5 C 43.0661,223.069 48.3995,230.069 54.5,236.5C 57.2956,239.797 60.2956,242.964 63.5,246C 70.2617,250.369 76.595,255.202 82.5,260.5C 83.9313,263.243 86.2647,264.909 89.5,265.5C 90.731,266.651 90.731,267.817 89.5,269C 90.7659,269.309 91.9326,269.809 93,270.5C 94.7261,269.424 96.5594,269.257 98.5,270C 101.417,271.528 104.417,272.861 107.5,274C 107.957,274.414 108.291,274.914 108.5,275.5C 107.007,276.141 106.007,277.141 105.5,278.5C 99.7202,278.212 94.3869,276.546 89.5,273.5C 88.316,271.954 87.316,270.287 86.5,268.5C 80.1723,269.675 75.1723,267.509 71.5,262C 68.5877,261.725 65.921,260.891 63.5,259.5C 60.7044,256.203 57.7044,253.036 54.5,250C 53.255,249.209 51.9217,248.709 50.5,248.5C 50.4431,247.391 50.1098,246.391 49.5,245.5C 51.8409,245.008 53.8409,243.841 55.5,242C 52.5527,239.264 49.7194,236.43 47,233.5C 46.6063,228.778 44.273,225.445 40,223.5C 39.4456,221.39 38.6123,219.39 37.5,217.5C 37.5427,216.584 37.8761,215.917 38.5,215.5 Z"/></g>
<g><path style="opacity:1" fill="#f9f7ed" d="M 235.5,252.5 C 230.09,257.384 224.09,261.55 217.5,265C 210.41,268.216 203.41,271.383 196.5,274.5C 191.309,276.13 185.976,277.13 180.5,277.5C 181.614,276.115 182.614,274.615 183.5,273C 188.105,273.289 192.272,271.789 196,268.5C 201.445,269.362 205.612,267.362 208.5,262.5C 208.5,261.833 208.833,261.5 209.5,261.5C 211.527,261.662 213.527,261.495 215.5,261C 222.407,258.43 229.074,255.597 235.5,252.5 Z"/></g>
<g><path style="opacity:0.161" fill="#cbcecf" d="M 254.5,264.5 C 242.117,275.366 228.117,283.699 212.5,289.5C 227.153,282.177 241.153,273.844 254.5,264.5 Z"/></g>
<g><path style="opacity:0.149" fill="#dadcdd" d="M 64.5,272.5 C 66.674,272.75 68.3406,273.75 69.5,275.5C 67.326,275.25 65.6594,274.25 64.5,272.5 Z"/></g>
<g><path style="opacity:1" fill="#f0f7f7" d="M 98.5,261.5 C 109.373,266.385 120.707,269.718 132.5,271.5C 136.919,272.972 141.586,273.638 146.5,273.5C 159.26,273.397 171.927,272.23 184.5,270C 192.629,267.761 200.629,265.261 208.5,262.5C 205.612,267.362 201.445,269.362 196,268.5C 192.272,271.789 188.105,273.289 183.5,273C 182.614,274.615 181.614,276.115 180.5,277.5C 170.851,277.979 161.351,278.313 152,278.5C 148.255,277.703 144.421,277.203 140.5,277C 127.719,273.817 115.052,270.317 102.5,266.5C 100.069,265.64 98.736,263.973 98.5,261.5 Z"/></g>
<g><path style="opacity:1" fill="#6d8085" d="M 132.5,271.5 C 137.181,271.669 141.848,272.002 146.5,272.5C 146.5,272.833 146.5,273.167 146.5,273.5C 141.586,273.638 136.919,272.972 132.5,271.5 Z"/></g>
<g><path style="opacity:1" fill="#8f8257" d="M 253.5,252.5 C 243.62,262.047 232.62,270.047 220.5,276.5C 215.244,278.697 209.911,280.697 204.5,282.5C 204.953,281.542 205.619,280.708 206.5,280C 218.028,276.457 228.028,270.457 236.5,262C 241.245,259.748 245.578,256.915 249.5,253.5C 250.736,252.754 252.07,252.421 253.5,252.5 Z"/></g>
<g><path style="opacity:1" fill="#f7f5ec" d="M 54.5,236.5 C 56.1667,236.5 57.8333,236.5 59.5,236.5C 59.238,237.978 59.5713,239.311 60.5,240.5C 64.445,243.286 68.1117,246.286 71.5,249.5C 72.5539,249.32 73.5539,248.987 74.5,248.5C 75.3148,250.276 76.4815,250.943 78,250.5C 78.4966,248.19 78.6633,245.857 78.5,243.5C 78.8333,243.5 79.1667,243.5 79.5,243.5C 78.4278,249.301 80.7611,252.634 86.5,253.5C 90.1559,256.663 94.1559,259.329 98.5,261.5C 98.736,263.973 100.069,265.64 102.5,266.5C 115.052,270.317 127.719,273.817 140.5,277C 144.421,277.203 148.255,277.703 152,278.5C 161.351,278.313 170.851,277.979 180.5,277.5C 178.039,278.531 175.373,279.198 172.5,279.5C 155.382,280.03 138.382,279.03 121.5,276.5C 107.704,273.102 94.7043,267.769 82.5,260.5C 76.595,255.202 70.2617,250.369 63.5,246C 60.2956,242.964 57.2956,239.797 54.5,236.5 Z"/></g>
<g><path style="opacity:1" fill="#968050" d="M 82.5,260.5 C 94.7043,267.769 107.704,273.102 121.5,276.5C 126.943,278.059 132.609,279.226 138.5,280C 150.008,280.826 161.341,280.659 172.5,279.5C 175.373,279.198 178.039,278.531 180.5,277.5C 185.976,277.13 191.309,276.13 196.5,274.5C 193.648,276.076 190.648,277.576 187.5,279C 180.637,280.112 173.97,281.779 167.5,284C 172.178,284.769 176.845,285.602 181.5,286.5C 188.898,284.055 196.565,282.721 204.5,282.5C 201.283,284.137 197.95,285.47 194.5,286.5C 191.833,286.833 189.167,287.167 186.5,287.5C 174.482,288.39 162.482,289.39 150.5,290.5C 140.255,290.636 130.255,289.303 120.5,286.5C 119.602,285.842 118.602,285.176 117.5,284.5C 113.102,283.743 108.769,282.743 104.5,281.5C 104.167,281.167 103.833,280.833 103.5,280.5C 104.729,279.719 106.062,279.219 107.5,279C 106.906,278.536 106.239,278.369 105.5,278.5C 106.007,277.141 107.007,276.141 108.5,275.5C 108.291,274.914 107.957,274.414 107.5,274C 104.417,272.861 101.417,271.528 98.5,270C 96.5594,269.257 94.7261,269.424 93,270.5C 91.9326,269.809 90.7659,269.309 89.5,269C 90.731,267.817 90.731,266.651 89.5,265.5C 86.2647,264.909 83.9313,263.243 82.5,260.5 Z"/></g>
<g><path style="opacity:0.188" fill="#dbddde" d="M 69.5,275.5 C 70.1667,275.5 70.8333,275.5 71.5,275.5C 71.8333,276.167 72.1667,276.833 72.5,277.5C 70.9731,277.573 69.9731,276.906 69.5,275.5 Z"/></g>
<g><path style="opacity:0.8" fill="#646d71" d="M 71.5,275.5 C 73.4341,276.11 75.1007,277.11 76.5,278.5C 75.8333,278.5 75.1667,278.5 74.5,278.5C 73.5084,278.672 72.8417,278.338 72.5,277.5C 72.1667,276.833 71.8333,276.167 71.5,275.5 Z"/></g>
<g><path style="opacity:1" fill="#8c7e56" d="M 63.5,259.5 C 65.921,260.891 68.5877,261.725 71.5,262C 75.1723,267.509 80.1723,269.675 86.5,268.5C 87.316,270.287 88.316,271.954 89.5,273.5C 94.3869,276.546 99.7202,278.212 105.5,278.5C 106.239,278.369 106.906,278.536 107.5,279C 106.062,279.219 104.729,279.719 103.5,280.5C 103.833,280.833 104.167,281.167 104.5,281.5C 108.769,282.743 113.102,283.743 117.5,284.5C 118.602,285.176 119.602,285.842 120.5,286.5C 117.482,286.296 114.482,285.963 111.5,285.5C 101.264,282.882 91.5978,278.882 82.5,273.5C 78.7324,270.775 74.7324,268.275 70.5,266C 67.7121,264.281 65.3788,262.115 63.5,259.5 Z"/></g>
<g><path style="opacity:0.29" fill="#c8cbcd" d="M 74.5,278.5 C 75.1667,278.5 75.8333,278.5 76.5,278.5C 76.8333,279.167 77.1667,279.833 77.5,280.5C 75.9731,280.573 74.9731,279.906 74.5,278.5 Z"/></g>
<g><path style="opacity:1" fill="#dfd5c0" d="M 121.5,276.5 C 138.382,279.03 155.382,280.03 172.5,279.5C 161.341,280.659 150.008,280.826 138.5,280C 132.609,279.226 126.943,278.059 121.5,276.5 Z"/></g>
<g><path style="opacity:1" fill="#1d2b28" d="M 82.5,273.5 C 91.5978,278.882 101.264,282.882 111.5,285.5C 114.408,286.816 117.408,287.816 120.5,288.5C 117.813,288.664 115.146,288.497 112.5,288C 105.133,285.975 97.7997,283.975 90.5,282C 88.9464,278.782 86.4464,276.615 83,275.5C 82.5357,274.906 82.369,274.239 82.5,273.5 Z"/></g>
<g><path style="opacity:0.176" fill="#d8dbdc" d="M 77.5,280.5 C 79.674,280.75 81.3406,281.75 82.5,283.5C 80.326,283.25 78.6594,282.25 77.5,280.5 Z"/></g>
<g><path style="opacity:0.757" fill="#adb2b6" d="M 82.5,283.5 C 88.1754,284.506 93.1754,286.839 97.5,290.5C 92.0806,288.956 87.0806,286.622 82.5,283.5 Z"/></g>
<g><path style="opacity:0.663" fill="#c4c8ca" d="M 97.5,290.5 C 107.088,292.589 116.422,295.256 125.5,298.5C 115.786,296.813 106.453,294.147 97.5,290.5 Z"/></g>
<g><path style="opacity:0.998" fill="#182d37" d="M 82.5,273.5 C 82.369,274.239 82.5357,274.906 83,275.5C 86.4464,276.615 88.9464,278.782 90.5,282C 97.7997,283.975 105.133,285.975 112.5,288C 115.146,288.497 117.813,288.664 120.5,288.5C 125.954,289.508 131.288,290.508 136.5,291.5C 136.611,292.117 136.944,292.617 137.5,293C 149.862,293.752 162.196,293.419 174.5,292C 176.058,291.79 177.391,291.29 178.5,290.5C 184.5,290.928 189.834,289.595 194.5,286.5C 199.627,286.708 204.627,286.042 209.5,284.5C 209.564,285.365 209.897,286.365 210.5,287.5C 208.668,288.057 207.335,289.057 206.5,290.5C 186.929,297.234 166.596,300.234 145.5,299.5C 139.178,298.986 132.845,298.653 126.5,298.5C 126.167,298.5 125.833,298.5 125.5,298.5C 116.422,295.256 107.088,292.589 97.5,290.5C 93.1754,286.839 88.1754,284.506 82.5,283.5C 81.3406,281.75 79.674,280.75 77.5,280.5C 77.1667,279.833 76.8333,279.167 76.5,278.5C 75.1007,277.11 73.4341,276.11 71.5,275.5C 70.8333,275.5 70.1667,275.5 69.5,275.5C 68.3406,273.75 66.674,272.75 64.5,272.5C 64.1667,271.833 63.8333,271.167 63.5,270.5C 63.9382,270.565 64.2716,270.399 64.5,270C 61.8469,267.424 62.5136,265.924 66.5,265.5C 71.6098,268.722 76.9432,271.388 82.5,273.5 Z"/></g>
<g><path style="opacity:1" fill="#262c22" d="M 194.5,286.5 C 189.834,289.595 184.5,290.928 178.5,290.5C 181.02,289.082 183.687,288.082 186.5,287.5C 189.167,287.167 191.833,286.833 194.5,286.5 Z"/></g>
<g><path style="opacity:1" fill="#7a7254" d="M 111.5,285.5 C 114.482,285.963 117.482,286.296 120.5,286.5C 130.255,289.303 140.255,290.636 150.5,290.5C 162.482,289.39 174.482,288.39 186.5,287.5C 183.687,288.082 181.02,289.082 178.5,290.5C 164.511,291.201 150.511,291.534 136.5,291.5C 131.288,290.508 125.954,289.508 120.5,288.5C 117.408,287.816 114.408,286.816 111.5,285.5 Z"/></g>
<g><path style="opacity:1" fill="#1b2722" d="M 178.5,290.5 C 177.391,291.29 176.058,291.79 174.5,292C 162.196,293.419 149.862,293.752 137.5,293C 136.944,292.617 136.611,292.117 136.5,291.5C 150.511,291.534 164.511,291.201 178.5,290.5 Z"/></g>
<g><path style="opacity:0.192" fill="#cacdd0" d="M 206.5,290.5 C 207.5,290.5 208.5,290.5 209.5,290.5C 189.064,298.891 167.731,302.224 145.5,300.5C 145.5,300.167 145.5,299.833 145.5,299.5C 166.596,300.234 186.929,297.234 206.5,290.5 Z"/></g>
<g><path style="opacity:0.122" fill="#dbdede" d="M 126.5,298.5 C 132.845,298.653 139.178,298.986 145.5,299.5C 145.5,299.833 145.5,300.167 145.5,300.5C 138.938,300.663 132.605,299.996 126.5,298.5 Z"/></g>
</svg>
